<svg width="85" height="28" viewBox="0 0 85 28" fill="none" xmlns="http://www.w3.org/2000/svg">
<g clip-path="url(#clip0_191_14768)">
<path d="M72.2755 26.2369V27.9996H84.4057V20.0495H82.6382V26.2369H72.2755ZM72.2755 0V1.76278H82.6382V7.95051H84.4057V0H72.2755ZM66.02 13.6371V9.54096H68.7927C70.1446 9.54096 70.6297 9.99022 70.6297 11.2176V11.9434C70.6297 13.205 70.1617 13.6371 68.7927 13.6371H66.02ZM70.4213 14.3629C71.6862 14.0345 72.5698 12.859 72.5698 11.4594C72.5698 10.578 72.2235 9.78274 71.5651 9.14314C70.7332 8.34792 69.6239 7.95051 68.1858 7.95051H64.2869V20.0491H66.02V15.2271H68.6194C69.9535 15.2271 70.4909 15.7801 70.4909 17.1631V20.0495H72.2584V17.4396C72.2584 15.5384 71.8079 14.8126 70.4213 14.6051V14.3629ZM55.8308 14.7603H61.1682V13.1703H55.8308V9.54054H61.688V7.95051H54.0631V20.0491H61.9479V18.459H55.8308V14.7603ZM50.0253 15.3999V16.2294C50.0253 17.9751 49.3841 18.5456 47.7727 18.5456H47.3915C45.7797 18.5456 45 18.0269 45 15.6245V12.3751C45 9.95551 45.8146 9.45396 47.426 9.45396H47.7723C49.3494 9.45396 49.8519 10.0417 49.869 11.6664H51.7753C51.6021 9.28119 50.0078 7.77777 47.6163 7.77777C46.4555 7.77777 45.485 8.14085 44.7573 8.83192C43.6655 9.85178 43.0591 11.5803 43.0591 13.9998C43.0591 16.3332 43.5791 18.0616 44.6533 19.1329C45.381 19.8416 46.3862 20.2218 47.374 20.2218C48.4136 20.2218 49.3669 19.8069 49.8519 18.9083H50.0942V20.0491H51.6885V13.8099H46.9924V15.3999H50.0253ZM34.7417 9.54054H36.6307C38.4158 9.54054 39.3863 9.98981 39.3863 12.4098V15.5898C39.3863 18.0094 38.4158 18.459 36.6307 18.459H34.7417V9.54054ZM36.7865 20.0495C40.0965 20.0495 41.3264 17.5434 41.3264 14.0002C41.3264 10.4052 40.0096 7.95093 36.7516 7.95093H33.0084V20.0495H36.7865ZM24.6391 14.7603H29.9765V13.1703H24.6391V9.54054H30.4961V7.95051H22.8712V20.0491H30.7562V18.459H24.6391V14.7603ZM14.4151 7.95051H12.6477V20.0491H20.619V18.459H14.4151V7.95051ZM0.5 20.0495V28H12.6301V26.2369H2.26739V20.0495H0.5ZM0.5 0V7.95051H2.26739V1.76278H12.6301V0H0.5Z" fill="#6C7689"/>
</g>
<defs>
<clipPath id="clip0_191_14768">
<rect width="84" height="28" fill="white" transform="translate(0.5)"/>
</clipPath>
</defs>
</svg>
