<svg width="96" height="28" viewBox="0 0 96 28" fill="none" xmlns="http://www.w3.org/2000/svg">
<g clip-path="url(#clip0_191_14747)">
<path d="M95.0597 7.50157H92.9301V4.95612C92.9301 4.82136 92.8697 4.70157 92.764 4.61173C92.6583 4.53687 92.5374 4.50692 92.4015 4.53687L90.5287 4.98606C90.3323 5.03098 90.1964 5.21066 90.1964 5.40532V7.4866H89.1241C88.8824 7.4866 88.7012 7.68125 88.7012 7.92082V9.46307C88.7012 9.70264 88.8975 9.89729 89.1241 9.89729H90.1964V16.0962C90.2266 18.7315 91.9182 19.0909 93.7608 19.0909C93.942 19.0909 94.1233 19.0909 94.3045 19.0759C94.4857 19.0759 94.6821 19.0609 94.8784 19.0609H94.8935C95.1503 19.031 95.3013 18.8513 95.3013 18.6117V16.9647C95.3013 16.7251 95.105 16.5304 94.8784 16.5304H94.229C93.2926 16.5304 92.915 16.1262 92.915 15.123V9.89729H95.0446C95.2862 9.89729 95.4675 9.70264 95.4675 9.46307V7.9358C95.4826 7.69622 95.2862 7.50157 95.0597 7.50157Z" fill="#6C7689"/>
<path d="M83.6273 7.33667C82.5097 7.33667 81.6488 7.68105 81.0295 8.35485V7.9356C81.0295 7.69603 80.8483 7.50138 80.6066 7.50138H78.6281C78.3864 7.50138 78.2052 7.68105 78.2052 7.9356V18.6265C78.2052 18.8661 78.3864 19.0607 78.6281 19.0607H80.6066C80.8483 19.0607 81.0295 18.8811 81.0295 18.6265V11.9335C81.0295 10.6907 81.7847 9.86715 82.9174 9.86715C84.0502 9.86715 84.7903 10.6907 84.7903 11.9634V18.6415C84.7903 18.8811 84.9715 19.0757 85.2132 19.0757H87.1917C87.4333 19.0757 87.6146 18.896 87.6146 18.6415V11.4393C87.6146 8.93881 86.0438 7.33667 83.6273 7.33667Z" fill="#6C7689"/>
<path d="M73.6737 12.1431H69.475C69.5052 11.7688 69.5505 11.5142 69.626 11.2896V11.2746C69.8979 10.3463 70.5624 9.85218 71.529 9.85218C72.5712 9.85218 73.3112 10.4062 73.5529 11.4094C73.6133 11.5741 73.6586 11.8286 73.6737 12.1431ZM71.529 7.33667C69.2333 7.33667 67.4964 8.62437 66.8923 10.7655C66.696 11.4094 66.6054 12.203 66.6205 13.2062C66.6205 14.434 66.7866 15.4222 67.1189 16.2308C67.874 18.1324 69.5052 19.2105 71.7405 19.2554C71.7707 19.2554 71.8009 19.2554 71.816 19.2554C73.6737 19.2554 75.2596 18.4918 76.196 17.1591C76.3319 16.9645 76.2866 16.7548 76.1053 16.5901L74.7763 15.4671C74.6554 15.3623 74.5346 15.3474 74.4591 15.3623C74.3836 15.3773 74.2627 15.4222 74.157 15.572C73.6284 16.3356 72.9034 16.7249 71.9821 16.7249C70.7437 16.7099 69.9432 16.2008 69.626 15.2276C69.5354 15.018 69.4901 14.7035 69.4599 14.3591H76.1053C76.3621 14.3591 76.5282 14.1795 76.5282 13.9249C76.5434 13.1762 76.5433 12.6073 76.4678 11.9934C76.1054 8.90886 74.444 7.33667 71.529 7.33667Z" fill="#6C7689"/>
<path d="M62.1183 13.1758C62.1183 14.3887 62.073 14.7031 61.9673 15.0774C61.7407 15.9908 61.0611 16.5298 60.1096 16.5298C59.158 16.5298 58.418 15.9758 58.131 15.0475C58.0404 14.8079 57.9347 14.2988 57.9347 13.2058C57.9347 12.3373 58.0102 11.7534 58.1763 11.3341C58.4935 10.3908 59.1883 9.85177 60.0945 9.85177C61.046 9.85177 61.7407 10.4058 61.9673 11.3192C62.073 11.7234 62.1183 12.0079 62.1183 13.1758ZM64.5197 7.50097H62.5563C62.3146 7.50097 62.1334 7.68065 62.1334 7.93519V8.21968C61.484 7.62075 60.6382 7.32129 59.5507 7.32129C57.6326 7.32129 56.0619 8.48921 55.4577 10.3609C55.1406 11.2443 55.1104 12.3373 55.1104 13.1908C55.1104 14.3138 55.201 15.1673 55.3973 15.886C56.077 18.132 58.0706 18.9405 59.7018 18.9405C60.7288 18.9405 61.5444 18.656 62.1334 18.102C62.1183 19.0454 61.8766 19.7192 61.3782 20.1683C60.7288 20.7523 59.6263 20.9769 57.98 20.8122C57.5571 20.8122 57.5118 21.0967 57.5118 21.2165L57.4514 23.0133C57.4514 23.2678 57.5873 23.4325 57.8441 23.4625C58.2518 23.5074 58.6445 23.5224 59.0221 23.5224C60.8496 23.5224 62.3751 23.0432 63.387 22.1448C64.4291 21.2165 64.9577 19.8539 64.9577 18.102V7.93519C64.9426 7.69562 64.7614 7.50097 64.5197 7.50097Z" fill="#6C7689"/>
<path d="M54.1455 7.5454C53.8435 7.42561 53.5112 7.36572 53.1336 7.36572C52.1217 7.36572 51.3061 7.77 50.6869 8.57855V7.9347C50.6869 7.69513 50.4905 7.50048 50.264 7.50048H48.2854C48.0438 7.50048 47.8625 7.69513 47.8625 7.9347V18.6256C47.8625 18.8652 48.0589 19.0598 48.2854 19.0598H50.264C50.5056 19.0598 50.6869 18.8652 50.6869 18.6256V12.4117C50.6869 11.0791 51.6686 10.4203 52.6352 10.3604C52.9826 10.3155 53.1638 10.3304 53.3904 10.3753C53.632 10.4203 53.8586 10.2705 53.919 10.0459L54.4476 8.14433C54.4929 7.88978 54.3721 7.63524 54.1455 7.5454Z" fill="#6C7689"/>
<path d="M43.0429 14.0597V15.0329C43.0429 16.1859 41.8346 16.8896 40.6565 16.8896C39.8712 16.8896 39.0254 16.5452 39.0254 15.5869C39.0254 14.6137 39.8561 14.0597 41.306 14.0597H43.0429ZM41.17 7.33667C38.9952 7.33667 37.2583 8.3249 36.7448 9.85218C36.6995 9.98694 36.7146 10.1217 36.7901 10.2415C36.8505 10.3463 36.9562 10.4212 37.0921 10.4511L39.0405 10.9303C39.2368 10.9602 39.4483 10.8554 39.5238 10.6757C39.7503 10.1516 40.3545 9.85218 41.2456 9.85218C42.4236 9.85218 43.0429 10.4212 43.0429 11.4843V11.9484H40.8076C37.9077 11.9484 36.1708 13.3709 36.1708 15.7367C36.1708 18.2971 38.1645 19.2105 40.0222 19.2105C41.2758 19.2105 42.3028 18.8361 43.0278 18.1474V18.6115C43.0278 18.8511 43.2241 19.0458 43.4506 19.0458H45.4292C45.6708 19.0458 45.8521 18.8511 45.8521 18.6115V11.2297C45.8672 8.93881 43.934 7.33667 41.17 7.33667Z" fill="#6C7689"/>
<path d="M19.9039 0.0598145H11.9897C11.7179 0.0598145 11.5064 0.284414 11.5064 0.553932C11.3403 8.16035 7.45874 15.3775 0.767961 20.4833C0.556515 20.648 0.511204 20.9475 0.662237 21.1721L5.29896 27.7154C5.45 27.94 5.76717 27.9849 5.97861 27.8202C10.1622 24.6459 13.5303 20.8128 15.9468 16.5753C18.3634 20.8277 21.7314 24.6459 25.915 27.8202C26.1265 27.9849 26.4436 27.94 26.5947 27.7154L31.2314 21.1721C31.3824 20.9475 31.3371 20.648 31.1257 20.4833C24.4349 15.3775 20.5533 8.16035 20.3872 0.553932C20.3872 0.269441 20.1758 0.0598145 19.9039 0.0598145Z" fill="#6C7689"/>
</g>
<defs>
<clipPath id="clip0_191_14747">
<rect width="95" height="28" fill="white" transform="translate(0.5)"/>
</clipPath>
</defs>
</svg>
