<svg width="91" height="28" viewBox="0 0 91 28" fill="none" xmlns="http://www.w3.org/2000/svg">
<g clip-path="url(#clip0_191_14770)">
<path d="M30.2184 15.0195V5.58154H31.1146C31.4649 5.58154 31.8008 5.7217 32.0485 5.97119C32.2962 6.22068 32.4354 6.55906 32.4354 6.91189V11.1089C33.8711 9.81784 35.0945 9.30179 36.7212 9.26844C39.8381 9.20369 42.5655 11.5406 42.8148 14.6761C43.1226 18.4239 40.4167 21.2435 36.8926 21.2435C33.0256 21.2435 30.2184 18.8261 30.2184 15.0195ZM32.4003 15.7612C32.6185 17.7116 34.4692 19.3225 36.4192 19.3539C38.9517 19.3932 40.6914 17.7253 40.6914 15.255C40.6914 12.7846 39.0005 11.1541 36.5283 11.1541C33.8887 11.1541 32.1003 13.0868 32.4003 15.7612ZM46.5201 9.50586V11.1874C47.9149 9.6177 48.7448 9.20761 50.3773 9.20761C50.853 9.20832 51.3279 9.24704 51.7975 9.32338V11.5563C51.2962 11.4171 50.7785 11.3471 50.2585 11.3483C49.076 11.3483 48.0825 11.7408 47.348 12.4766C46.7091 13.1221 46.5201 13.6284 46.5201 14.6349V20.853H44.2252V9.50586H46.5201ZM52.341 13.2575C52.4598 12.1528 52.6722 11.5544 53.1456 10.9775C54.0923 9.80018 55.7969 9.21154 58.2106 9.21154C60.1275 9.21154 61.5224 9.51175 62.4964 10.1553C63.301 10.6851 63.6322 11.468 63.6322 12.8494V17.8921C63.6322 18.9968 63.9166 19.3893 64.6978 19.3657C64.8719 19.3594 65.0455 19.3437 65.2179 19.3186V20.8393C64.8296 20.9734 64.4204 21.0359 64.0101 21.0237C62.5665 21.0237 61.9042 20.5862 61.4561 19.3206C60.036 20.6333 58.5691 21.1866 56.4632 21.1866C53.6482 21.1866 51.9202 19.8975 51.9202 17.8019C51.9141 17.2167 52.0791 16.6428 52.3947 16.1515C52.7103 15.6602 53.1625 15.2733 53.6949 15.0391C54.5462 14.6703 55.0586 14.5565 57.5054 14.3014C59.5879 14.0934 59.9425 14.0483 60.5347 13.8638C61.1737 13.6558 61.4581 13.3124 61.4581 12.7356C61.4581 11.5151 60.4412 10.9696 58.31 10.9696C56.2956 10.9696 55.2592 11.3621 54.8424 12.3981C54.7428 12.6555 54.5686 12.8767 54.3423 13.0328C54.1161 13.1889 53.8484 13.2727 53.5741 13.2732L52.341 13.2575ZM61.4522 15.1961C59.9904 15.6245 58.4892 15.9026 56.9716 16.0261C54.9125 16.2341 54.2735 16.6148 54.2735 17.6606C54.2735 18.8124 55.2203 19.4108 57.0885 19.4108C58.6275 19.4108 59.7866 19.0184 60.6146 18.259C61.2769 17.637 61.4425 17.1995 61.4425 16.1164L61.4522 15.1961ZM70.77 20.855H70.1855C69.9302 20.8557 69.6797 20.7841 69.4628 20.6485C69.2458 20.5129 69.071 20.3186 68.9582 20.0878L63.9867 9.50586H65.366C65.759 9.5028 66.1445 9.61486 66.4755 9.8284C66.8064 10.0419 67.0687 10.3478 67.2303 10.7087L70.542 18.3258L73.9609 10.6832C74.1257 10.3283 74.3883 10.0286 74.7175 9.81982C75.0467 9.61108 75.4285 9.5021 75.8175 9.50586H77.0701L71.9914 20.1015C71.8772 20.3289 71.7025 20.5197 71.4868 20.6528C71.2711 20.7858 71.0229 20.8559 70.77 20.855ZM78.6266 15.8358C78.8623 18.0236 80.5747 19.3814 83.1072 19.3814C84.5449 19.3814 85.6164 18.9517 86.2924 18.0903C86.4842 17.8459 86.7284 17.6484 87.0067 17.5124C87.285 17.3765 87.5903 17.3058 87.8996 17.3054H89.234C88.0651 19.8857 85.9924 21.1513 82.893 21.1513C79.0124 21.1513 76.4097 18.779 76.4097 15.2334C76.4097 11.6878 79.0844 9.19976 82.9417 9.19976C85.7333 9.19976 87.9814 10.4654 88.8814 12.5845C89.2827 13.5518 89.4502 14.427 89.4502 15.8299L78.6266 15.8358ZM87.0969 14.0855C86.5768 12.0822 85.0378 10.9461 82.9085 10.9461C80.7793 10.9461 79.2403 12.0743 78.6968 14.0855H87.0969Z" fill="#6C7689"/>
<path d="M24.1979 9.05732L23.3407 6.71254L23.9369 5.3665C23.9743 5.28159 23.9854 5.18726 23.9687 5.09588C23.9521 5.00449 23.9083 4.92031 23.8433 4.85438L22.2225 3.20421C21.8746 2.8486 21.4335 2.59987 20.9507 2.48697C20.4678 2.37407 19.9631 2.40165 19.4952 2.5665L19.0413 2.72544L16.5653 0.0235449L12.3652 0H12.3379L8.11054 0.0333563L5.63646 2.75683L5.19619 2.59986C4.72527 2.43306 4.21688 2.40501 3.7307 2.51901C3.24451 2.633 2.80069 2.88431 2.45132 3.24345L0.801287 4.92502C0.749502 4.97758 0.714719 5.04469 0.701507 5.11753C0.688295 5.19037 0.697273 5.26554 0.727261 5.33315L1.3487 6.7302L0.495438 9.07302L1.04675 11.1863L3.56174 20.8165C3.85147 21.9259 4.51804 22.8979 5.44555 23.5636C5.44555 23.5636 8.49821 25.7317 11.51 27.7018C11.7481 27.8933 12.0439 27.9976 12.3486 27.9976C12.6534 27.9976 12.9491 27.8933 13.1873 27.7018C16.5711 25.4688 19.2478 23.5557 19.2478 23.5557C20.1746 22.8897 20.8404 21.9178 21.1297 20.8087L23.631 11.1745L24.1979 9.05732Z" fill="#6C7689"/>
<path d="M13.0367 17.3558C12.8764 17.2835 12.711 17.2232 12.5419 17.1753H12.2438C12.0747 17.2232 11.9094 17.2835 11.749 17.3558L10.999 17.6698C10.7613 17.7698 10.3795 17.9484 10.1516 18.0622L8.77233 18.7862C8.72239 18.8025 8.67843 18.8336 8.64613 18.8753C8.61383 18.917 8.59467 18.9674 8.59111 19.0202C8.58754 19.073 8.59975 19.1256 8.62614 19.1713C8.65254 19.2171 8.69192 19.2538 8.73922 19.2768L9.93729 20.1283C10.1477 20.2775 10.4789 20.5404 10.6737 20.717L11.0107 21.0093C11.2055 21.1781 11.523 21.4587 11.7159 21.6314L12.0354 21.9159C12.1341 21.9987 12.2585 22.0441 12.387 22.0441C12.5155 22.0441 12.6399 21.9987 12.7387 21.9159L13.0737 21.6215L13.7789 21.0015L14.1179 20.7033C14.3127 20.5325 14.6419 20.2696 14.8523 20.1146L16.0504 19.2513C16.0978 19.2283 16.1372 19.1915 16.1635 19.1457C16.1898 19.0998 16.2017 19.047 16.1977 18.9942C16.1937 18.9414 16.174 18.8911 16.1411 18.8498C16.1082 18.8084 16.0637 18.7781 16.0134 18.7627L14.6361 18.0583C14.4062 17.9405 14.0244 17.7639 13.7848 17.6658L13.0367 17.3558Z" fill="white"/>
<path d="M21.5293 9.58079L21.5682 9.45522C21.5705 9.28722 21.5601 9.1193 21.537 8.9529C21.4211 8.65568 21.2721 8.37264 21.0929 8.10918L20.3136 6.95739C20.1695 6.74155 19.924 6.40013 19.7584 6.19803L18.7143 4.88142C18.619 4.7531 18.5155 4.63119 18.4045 4.51646H18.3831C18.3831 4.51646 18.1727 4.55374 17.9194 4.6028L16.3239 4.91282L15.6246 5.04821C15.3924 5.05919 15.1603 5.02523 14.9408 4.94814L13.6804 4.53804C13.4349 4.4576 13.0297 4.34183 12.7784 4.28689C12.5136 4.25854 12.2465 4.25854 11.9816 4.28689C11.7303 4.34575 11.3251 4.45956 11.0797 4.54001L9.81926 4.95206C9.59978 5.02915 9.36766 5.06312 9.13547 5.05213L8.43611 4.9187L6.83867 4.61065C6.58542 4.56159 6.37697 4.52235 6.37502 4.52431H6.3536C6.24256 4.63904 6.13909 4.76095 6.04385 4.88927L5.00162 6.20588C4.84187 6.40209 4.59057 6.75136 4.44641 6.96524L3.66718 8.11702C3.53259 8.31565 3.40965 8.52203 3.29899 8.7351C3.23223 8.9727 3.19686 9.21812 3.19379 9.46502L3.23275 9.5906C3.2515 9.67127 3.27559 9.75059 3.30483 9.82802C3.46652 10.0242 3.74315 10.35 3.92042 10.5403L6.64776 13.46C6.7383 13.5664 6.79888 13.6954 6.82321 13.8334C6.84753 13.9714 6.83471 14.1135 6.78607 14.2448L6.33996 15.3103C6.23852 15.5926 6.231 15.9004 6.31853 16.1874L6.40814 16.4346C6.55456 16.8361 6.80555 17.1906 7.13478 17.4608L7.56336 17.812C7.6747 17.8929 7.80461 17.944 7.94091 17.9605C8.07721 17.977 8.21543 17.9583 8.3426 17.9062L9.86601 17.1743C10.1456 17.0333 10.4073 16.8587 10.6452 16.6544L11.8648 15.5458C11.9133 15.5016 11.9526 15.448 11.9803 15.3883C12.0079 15.3286 12.0234 15.2638 12.0257 15.198C12.0281 15.1321 12.0173 15.0664 11.994 15.0048C11.9707 14.9432 11.9354 14.887 11.8901 14.8394L9.13742 12.9714C9.0332 12.8969 8.95897 12.7872 8.92822 12.6623C8.89748 12.5373 8.91226 12.4054 8.96989 12.2905L10.0374 10.2695C10.0982 10.1458 10.134 10.0112 10.1431 9.87353C10.1521 9.73582 10.1341 9.59767 10.09 9.46699C9.95747 9.2177 9.74344 9.02222 9.48418 8.91366L6.13736 7.64022C5.89579 7.548 5.90943 7.444 6.16463 7.42831L8.13026 7.23209C8.43849 7.21235 8.74791 7.24014 9.04781 7.3145L10.7582 7.79523C10.8797 7.83209 10.9837 7.91207 11.0511 8.02031C11.1184 8.12856 11.1445 8.25773 11.1245 8.38388L10.4524 12.0806C10.4074 12.2853 10.3962 12.4961 10.4193 12.7046C10.4465 12.7928 10.6764 12.9008 10.9277 12.9636L11.97 13.1872C12.2726 13.2433 12.5829 13.2433 12.8856 13.1872L13.8226 12.9734C14.0739 12.9165 14.3018 12.7968 14.331 12.7085C14.3535 12.5 14.3416 12.2891 14.296 12.0845L13.62 8.3878C13.6 8.26166 13.6261 8.13248 13.6934 8.02424C13.7608 7.91599 13.8648 7.83602 13.9862 7.79915L15.6967 7.31646C15.9966 7.24207 16.306 7.21428 16.6142 7.23405L18.5798 7.41849C18.837 7.44204 18.8487 7.53819 18.6091 7.63041L15.2642 8.90777C15.0049 9.01634 14.7909 9.21182 14.6583 9.4611C14.5696 9.72506 14.5885 10.0137 14.7109 10.2636L15.7804 12.2846C15.838 12.3995 15.8528 12.5315 15.8221 12.6564C15.7913 12.7813 15.7171 12.891 15.6129 12.9655L12.8622 14.8374C12.8169 14.885 12.7816 14.9413 12.7582 15.0029C12.7349 15.0644 12.7242 15.1301 12.7265 15.196C12.7289 15.2619 12.7443 15.3266 12.772 15.3863C12.7996 15.4461 12.8389 15.4996 12.8875 15.5438L14.109 16.6524C14.347 16.8561 14.6087 17.03 14.8882 17.1704L16.4116 17.9003C16.5389 17.9521 16.6773 17.9705 16.8136 17.9537C16.9499 17.9368 17.0797 17.8854 17.1908 17.8042L17.6194 17.451C17.949 17.1803 18.2 16.8251 18.3461 16.4228L18.4357 16.1756C18.5232 15.8887 18.5157 15.5808 18.4142 15.2985L17.9662 14.2331C17.9176 14.1017 17.9047 13.9597 17.9291 13.8216C17.9534 13.6836 18.014 13.5547 18.1045 13.4482L20.8318 10.5246C21.0091 10.3284 21.2838 10.0144 21.4455 9.81233C21.4785 9.7371 21.5064 9.65975 21.5293 9.58079Z" fill="white"/>
<path d="M90.4996 9.64877C90.5047 9.84049 90.4528 10.0294 90.3506 10.1912C90.2485 10.353 90.1007 10.4805 89.9262 10.5572C89.7517 10.634 89.5584 10.6565 89.3711 10.6219C89.1838 10.5874 89.011 10.4973 88.8748 10.3632C88.7387 10.2292 88.6453 10.0572 88.6068 9.8694C88.5682 9.68159 88.5862 9.48646 88.6584 9.30899C88.7306 9.13153 88.8537 8.9798 89.012 8.87325C89.1703 8.76669 89.3566 8.71015 89.547 8.71086C89.671 8.70852 89.7941 8.73102 89.9093 8.77705C90.0246 8.82309 90.1296 8.89174 90.2182 8.97902C90.3068 9.06629 90.3774 9.17045 90.4257 9.28543C90.474 9.40041 90.4991 9.52392 90.4996 9.64877ZM88.8262 9.64877C88.8231 9.74657 88.8396 9.844 88.8748 9.93521C88.9099 10.0264 88.963 10.1095 89.0309 10.1795C89.0988 10.2496 89.18 10.305 89.2697 10.3426C89.3594 10.3802 89.4557 10.3992 89.5529 10.3983C89.6483 10.3978 89.7427 10.3781 89.8305 10.3402C89.9182 10.3023 89.9975 10.247 90.0637 10.1776C90.1298 10.1083 90.1814 10.0262 90.2155 9.93641C90.2496 9.84657 90.2654 9.75076 90.262 9.65466C90.267 9.55654 90.2522 9.4584 90.2185 9.36623C90.1847 9.27405 90.1326 9.18977 90.0655 9.11851C89.9983 9.04724 89.9174 8.9905 89.8278 8.95172C89.7382 8.91294 89.6417 8.89294 89.5441 8.89294C89.4465 8.89294 89.35 8.91294 89.2604 8.95172C89.1708 8.9905 89.0899 9.04724 89.0227 9.11851C88.9556 9.18977 88.9035 9.27405 88.8697 9.36623C88.8359 9.4584 88.8212 9.55654 88.8262 9.65466V9.64877ZM89.399 10.1413H89.1827V9.20336C89.301 9.18202 89.421 9.17217 89.5412 9.17393C89.6533 9.16501 89.7656 9.18885 89.8646 9.2426C89.8925 9.26697 89.915 9.29709 89.9305 9.33093C89.9459 9.36478 89.954 9.40156 89.9542 9.43882C89.9499 9.49163 89.9286 9.54156 89.8934 9.58092C89.8582 9.62028 89.8111 9.64688 89.7594 9.65662V9.66839C89.8054 9.68732 89.8455 9.71849 89.8754 9.75857C89.9052 9.79866 89.9237 9.84616 89.9288 9.896C89.938 9.97721 89.9611 10.0562 89.997 10.1295H89.7633C89.7276 10.0577 89.7026 9.98102 89.6892 9.90189C89.6717 9.79986 89.6152 9.75276 89.4944 9.75276H89.3931L89.399 10.1413ZM89.399 9.60953H89.5003C89.6191 9.60953 89.7165 9.57029 89.7165 9.47218C89.7165 9.37407 89.6542 9.32894 89.5217 9.32894C89.4818 9.32813 89.4419 9.33208 89.4029 9.34071L89.399 9.60953Z" fill="#6C7689"/>
</g>
<defs>
<clipPath id="clip0_191_14770">
<rect width="90" height="28" fill="white" transform="translate(0.5)"/>
</clipPath>
</defs>
</svg>
