<svg width="100" height="28" viewBox="0 0 100 28" fill="none" xmlns="http://www.w3.org/2000/svg">
<g clip-path="url(#clip0_191_14766)">
<path d="M13.4313 8.03747C14.1891 8.99277 15.1774 9.73395 16.2976 10.2281C17.4177 10.7222 18.6367 10.9198 19.8556 10.8375C19.905 10.8375 19.9545 10.8375 20.0039 10.8704C20.0533 10.8869 20.0862 10.9198 20.1192 10.9692C20.1521 11.0187 20.1521 11.0681 20.1521 11.101C20.1521 11.1504 20.1357 11.1998 20.1027 11.2328C19.4273 12.2539 19.0155 13.4234 18.9002 14.6422C18.7849 15.861 18.9661 17.0798 19.4273 18.2163C19.4438 18.2657 19.4438 18.3151 19.4438 18.3645C19.4438 18.4139 19.4109 18.4634 19.3779 18.4963C19.345 18.5292 19.312 18.5622 19.2626 18.5786C19.2132 18.5951 19.1638 18.5951 19.1144 18.5786C17.9283 18.2492 16.6929 18.2328 15.5069 18.4963C14.3208 18.7598 13.2007 19.3034 12.2618 20.0939C12.2288 20.1269 12.1794 20.1434 12.13 20.1434C12.0806 20.1434 12.0312 20.1434 11.9817 20.1269C11.9323 20.1104 11.8994 20.0775 11.8664 20.0445C11.8335 20.0116 11.817 19.9622 11.817 19.9128C11.7511 18.6939 11.4052 17.5081 10.7793 16.4539C10.1533 15.3998 9.29672 14.5104 8.25895 13.8681C8.22601 13.8351 8.19306 13.8022 8.16012 13.7692C8.14365 13.7198 8.12717 13.6704 8.12717 13.6375C8.12717 13.5881 8.14365 13.5387 8.17659 13.5057C8.20954 13.4728 8.24248 13.4398 8.2919 13.4234C9.4285 12.9951 10.4498 12.2869 11.257 11.381C12.0641 10.4751 12.6406 9.37159 12.9372 8.18571C12.9536 8.1363 12.9701 8.10336 13.003 8.07042C13.036 8.03747 13.0854 8.02101 13.1348 8.00453C13.1842 7.98806 13.2337 8.00453 13.2831 8.00453C13.3654 7.97159 13.4149 8.00453 13.4313 8.03747ZM14.502 3.06336C16.66 3.06336 18.7849 3.70571 20.5804 4.90806C22.3759 6.11041 23.7761 7.82336 24.5997 9.8163C25.4233 11.8092 25.6375 14.0163 25.2257 16.141C24.7974 18.2657 23.7596 20.2092 22.2277 21.741C20.6957 23.2728 18.752 24.3104 16.627 24.7387C14.502 25.1669 12.3112 24.9363 10.3015 24.1128C8.30837 23.2892 6.59523 21.8892 5.39273 20.0939C4.20671 18.2822 3.56428 16.1575 3.56428 13.9998C3.56428 11.101 4.71736 8.31748 6.77642 6.27512C8.81902 4.2163 11.6029 3.06336 14.502 3.06336ZM14.502 0.131592C11.7511 0.131592 9.08258 0.93865 6.7929 2.47042C4.51968 4.00218 2.74065 6.15983 1.68641 8.6963C0.632164 11.2328 0.368603 14.0163 0.895725 16.701C1.42285 19.3857 2.75712 21.8563 4.68441 23.7998C6.62817 25.7434 9.09905 27.061 11.7841 27.5881C14.4691 28.1151 17.2694 27.8516 19.7897 26.7975C22.3265 25.7434 24.4844 23.9645 26.0164 21.6916C27.5483 19.4187 28.3555 16.7339 28.3555 13.9834C28.3555 10.3104 26.8894 6.78571 24.2867 4.18336C21.7006 1.59747 18.1754 0.131592 14.502 0.131592ZM33.6926 16.141H35.9493C35.9493 17.0139 36.7565 17.7716 38.0907 17.7716C39.425 17.7716 40.2486 17.1786 40.2486 16.3551C40.2486 15.6139 39.6227 15.2351 38.7661 15.0539L37.2012 14.6916C35.0433 14.1481 34.0385 13.0939 34.0385 11.4469C34.0385 9.65159 35.7516 8.20218 38.1566 8.20218C40.1498 8.20218 42.2748 9.20689 42.2748 11.5128H39.9521C39.9521 10.7057 39.0791 10.1622 38.2225 10.1622C37.2012 10.1622 36.5094 10.7551 36.5094 11.5128C36.5094 12.1881 37.1847 12.5834 37.9095 12.7481L39.6721 13.1598C42.1595 13.7528 42.703 15.2187 42.703 16.4045C42.703 18.4963 40.5122 19.7316 38.1237 19.7316C35.9493 19.7316 33.7255 18.4304 33.6926 16.141ZM43.7738 13.9339C43.7738 10.4257 46.5576 8.21865 49.8686 8.21865C53.1796 8.21865 55.9799 10.4422 55.9799 13.9339C55.9799 17.4422 53.1631 19.7316 49.8521 19.7316C46.5576 19.7316 43.7738 17.4422 43.7738 13.9339ZM53.542 13.9339C53.542 11.8092 51.8453 10.3763 49.8686 10.3763C47.8754 10.3763 46.2117 11.7928 46.2117 13.9339C46.2117 16.0916 47.8754 17.5245 49.8686 17.5245C51.8453 17.5245 53.542 16.0916 53.542 13.9339ZM65.1881 8.63041L64.7598 10.8375C64.2162 10.6069 63.6397 10.4751 63.0466 10.4587C60.9382 10.4587 59.9498 12.5504 59.9498 15.5481V19.5175H57.4789V8.46571H59.9498V10.9528C60.5428 9.00924 61.7124 8.23512 63.2114 8.23512C63.9856 8.21865 64.8257 8.39983 65.1881 8.63041ZM77.7566 8.44924V19.501H75.3187V17.8539C74.5445 19.1057 72.8808 19.7481 71.3159 19.7481C68.1531 19.7481 65.5505 17.4751 65.5505 13.9834C65.5505 10.4587 68.1531 8.23512 71.2829 8.23512C72.9302 8.23512 74.5445 8.84453 75.3022 10.0963V8.44924H77.7566ZM75.3022 13.9339C75.3022 11.7104 73.3914 10.4092 71.5959 10.4092C69.6027 10.4092 68.0049 11.8587 68.0049 13.9339C68.0049 15.9928 69.6192 17.5245 71.5959 17.5245C73.5561 17.5245 75.3022 16.1739 75.3022 13.9339ZM87.3601 8.63041L86.9318 10.8375C86.3882 10.6069 85.8117 10.4751 85.2187 10.4587C83.1102 10.4587 82.1219 12.5504 82.1219 15.5481V19.5175H79.6674V8.46571H82.1383V10.9528C82.7313 9.00924 83.9009 8.23512 85.3999 8.23512C86.1576 8.21865 86.9977 8.39983 87.3601 8.63041ZM99.418 14.9057H90.1605C90.4734 16.701 91.8736 17.5739 93.7515 17.5739C95.0857 17.5739 96.3541 17.0304 97.013 16.0092L98.9568 16.9316C97.9355 18.7763 95.86 19.7316 93.6362 19.7316C90.2922 19.7316 87.6566 17.4422 87.6566 13.9339C87.6566 10.4257 90.3417 8.21865 93.6362 8.21865C96.9307 8.21865 99.451 10.4422 99.451 13.9175C99.4674 14.2304 99.4345 14.5598 99.418 14.9057ZM97.046 13.0445C96.8318 11.3151 95.4811 10.3763 93.7021 10.3763C91.923 10.3763 90.5723 11.2328 90.2263 13.0445H97.046Z" fill="#6C7689"/>
</g>
<defs>
<clipPath id="clip0_191_14766">
<rect width="99" height="28" fill="white" transform="translate(0.5)"/>
</clipPath>
</defs>
</svg>
