<svg width="56" height="28" viewBox="0 0 56 28" fill="none" xmlns="http://www.w3.org/2000/svg">
<g clip-path="url(#clip0_191_14763)">
<path d="M34.4173 0.32925C34.6101 0.164676 34.8532 -0.104898 35.1297 0.0529743C36.1118 0.696379 37.0599 1.40234 37.9167 2.20957C38.4919 2.74872 39.0271 3.32883 39.5905 3.87989C39.5897 4.01244 39.6097 4.16063 39.5089 4.26489C38.4741 5.75797 37.2259 7.08797 35.8991 8.32042C35.7657 8.44255 35.6033 8.52223 35.4462 8.60563C35.2594 8.53563 35.0719 8.46489 34.9066 8.35095C34.0971 7.80734 33.3396 7.18925 32.5931 6.56074C31.9438 5.98659 31.2604 5.43478 30.7334 4.73776C30.4762 4.46968 30.8231 4.17627 30.9639 3.94616C32.0016 2.63999 33.1713 1.43734 34.4166 0.328506M35.8487 3.36531C35.3461 3.82553 34.8673 4.31329 34.338 4.74446C34.1913 4.85914 34.0556 5.01478 33.8614 5.04308C33.6776 4.59031 33.6931 4.08914 33.7398 3.61106C33.8918 3.62893 34.0371 3.67882 34.175 3.74585C34.023 3.96106 33.602 4.19712 33.8599 4.48904C34.0341 4.31776 34.2053 4.14351 34.3766 3.96776C34.4781 4.02734 34.5804 4.0884 34.6834 4.14872C34.7665 4.05489 34.8991 3.96627 34.8376 3.81957C34.4981 3.54702 34.1216 3.31468 33.7213 3.14265C33.5998 3.07563 33.4641 3.10542 33.3359 3.12106C33.2869 3.44276 33.2165 3.76744 33.2692 4.09436C33.3448 4.61414 33.301 5.17191 33.5605 5.64776C34.0156 5.54202 34.3017 5.14287 34.6442 4.85766C35.1593 4.41159 35.5966 3.87393 36.163 3.48744C36.2186 3.49861 36.329 3.51946 36.3838 3.52915C36.478 3.96851 36.5921 4.44212 36.395 4.87255C36.1126 4.81372 35.8976 4.6201 35.67 4.45702C35.5181 4.32819 35.1853 4.43095 35.3394 4.67074C35.7538 4.97308 36.1978 5.22851 36.6663 5.43329C36.7241 5.39755 36.8382 5.32531 36.8946 5.28957C36.9413 4.48829 36.9242 3.66021 36.6833 2.8917C36.3216 2.83882 36.0903 3.15531 35.8502 3.36531M5.68095 1.51255C6.02192 1.3517 6.37994 1.15212 6.77057 1.21617C7.26646 2.02042 7.9358 2.70031 8.43762 3.50159C7.80905 3.93946 7.3102 4.59553 7.22866 5.37968C7.28722 5.68127 7.36801 6.00148 7.61485 6.20627C8.16781 6.66053 8.86013 6.8951 9.5391 7.08872C11.5805 7.65319 13.673 8.00914 15.7173 8.55872C15.7462 8.60489 15.8048 8.69574 15.8337 8.74117C15.6239 13.4513 15.5202 18.1658 15.4453 22.8789C15.0917 23.0435 14.6885 22.9489 14.3127 22.9839C13.1467 22.969 11.9867 23.1574 10.82 23.074C10.5887 22.199 10.3997 21.3114 10.1566 20.4386C9.3916 20.1549 8.62886 19.8667 7.8513 19.621C7.78311 19.6202 7.71417 19.6187 7.64598 19.6187C6.98627 20.7365 6.40144 21.8989 5.70838 22.9981C4.59874 23.013 3.4891 22.9869 2.38095 23.0189C1.8695 23.0606 1.25278 23.2006 0.83769 22.8045C0.733175 22.6831 0.465587 22.5863 0.558242 22.3912C1.37286 20.4974 2.23789 18.6261 3.08439 16.7457C3.94348 14.7619 4.79369 12.7744 5.59126 10.7645C5.70986 10.4941 5.761 10.1777 5.64685 9.89617C5.48675 9.43149 5.0976 9.10382 4.71437 8.82234C3.82266 8.16255 2.88055 7.56606 2.00959 6.87946C2.0296 6.64414 2.1697 6.44531 2.26087 6.23382C2.54921 5.59042 2.81754 4.93584 3.16889 4.32297C3.56693 4.23585 3.79375 4.6201 4.04429 4.85616C3.99241 3.80765 4.35117 2.74127 5.02644 1.93925C5.19247 1.72851 5.45191 1.63393 5.68169 1.51404M9.41087 12.2129C9.20406 12.5688 9.08769 12.9702 8.94389 13.3545C8.75636 13.9234 8.51397 14.4745 8.35979 15.0538C8.29901 15.2005 8.34719 15.3495 8.40056 15.488C9.10177 15.7553 9.82226 16.0003 10.5657 16.1075C10.7318 15.9891 10.9022 15.8767 11.0772 15.7732C11.2491 14.6733 11.1157 13.5637 11.0675 12.4608C11.032 12.4102 10.9601 12.306 10.9245 12.2553C10.6198 12.2002 10.3241 12.1056 10.0239 12.0341C9.80669 11.9835 9.53688 11.9954 9.41087 12.2129ZM47.0844 4.66478C47.7122 4.42723 48.323 4.13978 48.9649 3.9417C49.1584 3.91787 49.4097 3.82851 49.572 3.98489C49.6387 4.21053 49.6683 4.44585 49.6943 4.67968C49.7662 5.71851 49.8803 6.75361 50.0019 7.78648C50.0434 7.99276 49.8114 8.08212 49.675 8.17446C48.7351 8.70616 47.9954 9.53276 47.4372 10.4487C47.2786 10.684 47.1748 10.9804 46.9095 11.1197C46.269 10.8918 45.6864 10.4621 45.0074 10.3772C44.751 10.5351 44.7613 10.9045 44.7324 11.1725C44.6761 11.7504 44.9585 12.3052 45.3603 12.7014C45.4967 12.8153 45.6553 12.9836 45.8532 12.9166C46.2853 12.6254 46.5959 12.1972 46.9428 11.816C47.071 11.6469 47.3216 11.6722 47.4869 11.7683C47.8353 11.9641 48.1992 12.1317 48.5654 12.2881C49.1725 12.5286 49.824 12.5912 50.4615 12.6969C50.6853 12.7282 50.9203 12.7237 51.1264 12.8324C51.0715 13.4788 50.9159 14.114 50.901 14.7641C50.8958 14.9399 50.8462 15.1104 50.7995 15.2787C50.2102 15.587 49.5727 15.7814 48.9619 16.039C48.7974 16.1098 48.6321 16.1775 48.4653 16.2408C48.0836 16.4069 47.6885 16.5372 47.312 16.7167C47.3594 16.8694 47.4135 17.0213 47.4698 17.1717C47.5136 17.3035 47.5491 17.439 47.5788 17.5761C48.3378 17.696 49.1095 17.6691 49.8766 17.7027C51.1975 17.7317 52.5177 17.8144 53.84 17.7853C54.0646 17.7853 54.2929 17.757 54.5175 17.7965C54.7999 18.0489 55.1483 18.2813 55.2825 18.6506C55.2336 19.0029 55.0616 19.3231 54.9578 19.6604C54.8852 19.8257 54.82 19.9933 54.7599 20.1646C54.6865 20.3269 54.6191 20.4937 54.5583 20.6628C54.3685 21.1051 54.1847 21.5512 54.009 21.9987C53.9794 22.1037 53.909 22.2661 54.032 22.339C54.4642 22.6146 54.9349 22.829 55.3522 23.1306C55.5516 23.2922 55.4463 23.5588 55.3455 23.7472C55.1795 23.9885 54.8837 24.0533 54.625 24.1441C53.4131 24.544 52.2182 24.9931 51.0093 25.3997C50.7142 25.4943 50.3911 25.6149 50.0916 25.4741C50.0708 24.3787 50.1057 23.2818 50.2028 22.1901C48.5995 22.1998 47.0021 22.3487 45.407 22.4828C44.6368 22.5096 43.8711 22.6414 43.1002 22.5744C42.9423 22.4865 42.8993 22.3011 42.8497 22.1424C42.5191 20.9912 42.2849 19.8131 41.9965 18.6514C41.7134 17.4539 41.3894 16.2662 41.1085 15.0687C40.9692 14.3948 40.8105 13.7246 40.62 13.064C40.3139 11.5144 39.9448 9.97733 39.5927 8.43808C39.5578 8.2817 39.5771 8.1201 39.5867 7.96074C39.9537 7.73734 40.328 7.52361 40.7223 7.35308C42.5043 6.57489 44.3084 5.84883 46.0844 5.05797C46.4165 4.92319 46.7531 4.8018 47.0844 4.66478ZM24.2698 12.5055C25.7982 11.291 27.2785 10.0146 28.8069 8.80297C29.9173 9.8701 31.1047 10.871 32.0543 12.093C31.5146 12.6686 30.8542 13.1087 30.2582 13.6211C29.5289 14.2205 28.8321 14.8595 28.0812 15.4321C27.9055 15.5252 27.9174 15.7464 27.9871 15.905C28.3518 16.818 29.0789 17.5463 29.9136 18.0385C30.5236 18.4079 31.3093 18.4116 31.9468 18.107C32.2233 17.9975 32.4694 17.76 32.7866 17.8047C33.006 18.7668 33.2914 19.714 33.4967 20.6799C33.5553 20.8437 33.3588 20.9316 33.2603 21.0202C32.284 21.6979 31.3449 22.4314 30.3502 23.0822C30.1248 23.2557 29.792 23.2535 29.5681 23.077C28.4289 22.3055 27.3007 21.5139 26.2229 20.6568C25.6307 20.1958 25.071 19.6924 24.4403 19.2858C23.616 20.0275 22.8369 20.8177 22.0149 21.5608C21.3263 22.1767 20.6303 22.7844 19.9698 23.4307C19.5725 23.1783 19.2657 22.8149 18.9158 22.5036C18.1301 21.7991 17.3874 21.047 16.5957 20.3478C16.44 20.1765 16.0694 19.9479 16.3326 19.7058C17.4163 18.4704 18.5518 17.2804 19.6415 16.0502C18.9995 14.9823 18.3072 13.9465 17.692 12.863C17.4177 12.3588 17.0516 11.9038 16.8425 11.3669C18.1019 10.5694 19.3635 9.7718 20.6659 9.04797C21.1195 9.35925 21.4256 9.83138 21.8177 10.2119C22.5279 10.9253 23.1838 11.6916 23.9125 12.3871C24.0022 12.4802 24.1408 12.6016 24.272 12.504M32.4486 9.65191C34.4833 9.27361 36.5402 9.02265 38.5861 8.70989C38.8255 9.50446 38.7373 10.3556 38.8336 11.174C38.9144 11.7661 38.8559 12.3655 38.927 12.9583C39.0212 13.6382 38.9745 14.3278 39.0301 15.0099C39.1168 15.587 39.0679 16.1731 39.1435 16.7502C39.2235 17.3802 39.1472 18.0206 39.2539 18.6477C39.2717 19.8957 39.4756 21.1386 39.3933 22.3867C39.2443 22.3934 39.096 22.3904 38.9493 22.377C37.4987 22.1328 36.0481 21.893 34.6093 21.5869C34.4003 21.5541 34.2876 21.3613 34.2683 21.1639C34.0675 19.9077 33.7962 18.6633 33.5582 17.4137C33.5123 17.1516 33.4878 16.8612 33.6479 16.6311C34.4181 15.2862 34.7813 13.6225 34.3024 12.1153C33.7858 12.122 33.2766 12.0401 32.7629 12.0044C32.5887 11.2321 32.4768 10.4428 32.4486 9.65191ZM30.4917 13.7514C30.5495 13.5637 30.7193 13.4781 30.9076 13.5108C31.3049 14.0418 31.3694 14.7195 31.4101 15.3599C31.3716 15.832 31.3597 16.3332 31.0966 16.7457C30.9713 16.7279 30.8194 16.7368 30.7734 16.5894C30.2998 15.7434 30.133 14.6703 30.491 13.7514M16.2332 24.97C16.5964 24.9581 16.9611 24.9558 17.3251 24.976C17.3169 25.9463 17.3132 26.9158 17.3192 27.8862C16.9537 27.9182 16.5861 27.9093 16.2199 27.9063C16.2281 26.927 16.2369 25.9485 16.234 24.97M18.3361 24.9611C18.6163 24.9782 18.9232 24.9104 19.1871 25.0013C19.5436 25.5024 19.8208 26.0572 20.1944 26.5472C20.2204 26.0193 20.2093 25.4905 20.2152 24.9626C20.5095 24.9558 20.8045 24.9566 21.098 24.9767C21.0921 25.953 21.1002 26.9278 21.1091 27.9025C20.82 27.9107 20.5302 27.9092 20.2411 27.9003C19.9394 27.4364 19.6037 26.9963 19.3072 26.5294C19.2805 26.9881 19.2575 27.4483 19.2634 27.9093C18.9506 27.907 18.6378 27.9063 18.325 27.913C18.3102 27.8452 18.2813 27.7082 18.2672 27.6404C18.3717 26.7542 18.302 25.8532 18.3361 24.9611ZM22.0965 24.9611C22.8258 24.9588 23.5545 24.9573 24.2838 24.9633C24.2838 25.2299 24.2838 25.4965 24.2801 25.7631C23.8591 25.7594 23.4388 25.7579 23.0186 25.7772C23.0208 25.877 23.0252 26.0788 23.0274 26.1794C23.2535 26.1831 23.4803 26.1875 23.7072 26.1913C23.7072 26.3819 23.7064 26.5733 23.7049 26.7654C23.4907 26.7617 23.2765 26.7595 23.063 26.7565C23.0667 27.1378 23.0712 27.519 23.083 27.9011C22.7317 27.9428 22.3789 27.9122 22.0283 27.8921C22.0698 26.9158 22.1068 25.9403 22.0965 24.9626M25.2245 25.0303C25.5373 24.8717 25.9539 25.0057 26.3052 24.9663C26.2971 25.9455 26.2904 26.9255 26.2911 27.9055C25.9264 27.9115 25.5632 27.9145 25.1985 27.8988C25.22 26.9427 25.1874 25.9857 25.2245 25.0311M27.3422 24.9633C27.635 24.9596 27.93 24.9462 28.2213 24.9983C28.4689 25.4935 28.8173 25.9277 29.0878 26.4102C29.1279 26.408 29.2072 26.4042 29.2464 26.402C29.2346 25.9224 29.2457 25.4421 29.2464 24.9618C29.5259 24.9596 29.8039 24.9596 30.0826 24.964C30.0766 25.9388 30.0952 26.9129 30.13 27.8869C29.8239 27.916 29.5118 27.9368 29.2101 27.869C28.9796 27.4602 28.6883 27.0879 28.4126 26.7103L28.2725 26.6344C28.2702 27.0596 28.2695 27.4848 28.2665 27.91C27.9367 27.9122 27.6083 27.9122 27.2799 27.904C27.3044 26.9233 27.2888 25.9418 27.3415 24.9633M31.1136 24.9611C31.4605 24.964 31.8082 24.964 32.1543 24.964C32.1506 25.9448 32.1477 26.927 32.1454 27.9078C31.7867 27.9115 31.4272 27.9167 31.0699 27.8958C31.0869 26.9166 31.0721 25.9388 31.1136 24.9611ZM33.2054 24.9737C34.0927 24.868 34.9844 24.9789 35.8731 24.9611L36.0066 24.9752C35.9391 25.3073 35.928 25.6462 35.9317 25.9843C35.6285 25.9805 35.3268 25.982 35.0244 25.9902C35.0185 26.6299 35.0155 27.2703 35.0126 27.9115C34.8606 27.9107 34.7086 27.9093 34.5567 27.9085L34.4811 27.9621C34.2973 27.9532 34.1008 27.9748 33.9348 27.8787C33.9911 27.2472 34.0274 26.6143 34.0452 25.9805C33.7613 25.9828 33.4767 25.9857 33.1936 25.9932C33.1446 25.7765 33.1439 25.5538 33.1928 25.3386C33.1787 25.2485 33.1513 25.0705 33.1365 24.9812L33.2047 24.9737M36.4409 24.9626C36.8004 24.9827 37.1762 24.8695 37.5246 24.9737C37.784 25.2269 37.9753 25.5456 38.2199 25.816C38.3511 25.5322 38.4867 25.2522 38.6209 24.9707C38.9952 24.9566 39.3696 24.9566 39.7454 24.9611C39.3636 25.9612 38.8203 26.8928 38.4223 27.8877C38.065 28.0604 37.6454 27.7693 37.3119 27.9964C37.1807 27.5027 37.8092 27.1385 37.7144 26.6485C37.3022 26.0773 36.8412 25.5427 36.4409 24.9633" fill="#6C7689"/>
</g>
<defs>
<clipPath id="clip0_191_14763">
<rect width="55" height="28" fill="white" transform="translate(0.5)"/>
</clipPath>
</defs>
</svg>
