<svg width="101" height="28" viewBox="0 0 101 28" fill="none" xmlns="http://www.w3.org/2000/svg">
<path d="M13.0747 7.98504C13.8488 8.95002 14.8584 9.69871 16.0027 10.1978C17.1469 10.697 18.3921 10.8966 19.6373 10.8134C19.6878 10.8134 19.7383 10.8134 19.7888 10.8467C19.8393 10.8633 19.8729 10.8966 19.9066 10.9465C19.9402 10.9964 19.9402 11.0463 19.9402 11.0796C19.9402 11.1295 19.9234 11.1795 19.8897 11.2127C19.1998 12.2443 18.7791 13.4255 18.6614 14.6567C18.5436 15.8879 18.7287 17.1191 19.1998 18.267C19.2166 18.317 19.2166 18.3669 19.2166 18.4168C19.2166 18.4667 19.183 18.5166 19.1493 18.5499C19.1157 18.5832 19.082 18.6164 19.0315 18.6331C18.9811 18.6497 18.9306 18.6497 18.8801 18.6331C17.6685 18.3003 16.4065 18.2837 15.195 18.5499C13.9834 18.8161 12.8391 19.3651 11.88 20.1637C11.8463 20.197 11.7959 20.2136 11.7454 20.2136C11.6949 20.2136 11.6444 20.2136 11.5939 20.197C11.5435 20.1804 11.5098 20.1471 11.4761 20.1138C11.4425 20.0805 11.4257 20.0306 11.4257 19.9807C11.3584 18.7495 11.005 17.5516 10.3655 16.4868C9.72612 15.422 8.8511 14.5236 7.79099 13.8747C7.75733 13.8415 7.72368 13.8082 7.69003 13.7749C7.6732 13.725 7.65637 13.6751 7.65637 13.6418C7.65637 13.5919 7.6732 13.542 7.70685 13.5087C7.74051 13.4754 7.77416 13.4422 7.82464 13.4255C8.98572 12.9929 10.029 12.2775 10.8535 11.3625C11.6781 10.4474 12.267 9.33268 12.5699 8.13478C12.5867 8.08487 12.6036 8.05159 12.6372 8.01832C12.6709 7.98504 12.7214 7.9684 12.7718 7.95177C12.8223 7.93513 12.8728 7.95177 12.9233 7.95177C13.0074 7.91849 13.0579 7.95176 13.0747 7.98504ZM14.1685 2.96051C16.3729 2.96051 18.5436 3.60937 20.3777 4.82391C22.2119 6.03845 23.6422 7.76875 24.4836 9.7819C25.3249 11.795 25.5437 14.0245 25.123 16.1707C24.6855 18.317 23.6254 20.2802 22.0604 21.8275C20.4955 23.3748 18.5099 24.4229 16.3392 24.8555C14.1685 25.2881 11.9305 25.0552 9.87756 24.2233C7.84147 23.3914 6.09144 21.9772 4.86306 20.1637C3.6515 18.3336 2.99524 16.1873 2.99524 14.0078C2.99524 11.0796 4.17314 8.26788 6.27654 6.20483C8.36311 4.12513 11.2069 2.96051 14.1685 2.96051ZM14.1685 -0.000976562C11.3584 -0.000976562 8.63235 0.814262 6.29337 2.36155C3.97122 3.90884 2.15388 6.08836 1.07694 8.65054C1.60477e-07 11.2127 -0.269235 14.0245 0.269235 16.7364C0.807705 19.4483 2.17071 21.9439 4.13949 23.9072C6.1251 25.8704 8.64917 27.2014 11.392 27.7338C14.1348 28.2662 16.9955 28 19.57 26.9352C22.1614 25.8704 24.3658 24.0735 25.9307 21.7776C27.4956 19.4816 28.3202 16.7697 28.3202 13.9912C28.3202 10.281 26.8225 6.72059 24.1638 4.09186C21.522 1.47976 17.921 -0.000976562 14.1685 -0.000976562ZM33.7722 16.1707H36.0775C36.0775 17.0525 36.902 17.8178 38.265 17.8178C39.628 17.8178 40.4694 17.2189 40.4694 16.387C40.4694 15.6383 39.83 15.2556 38.9549 15.0726L37.3564 14.7066C35.152 14.1576 34.1255 13.0928 34.1255 11.429C34.1255 9.61552 35.8756 8.15141 38.3323 8.15141C40.3684 8.15141 42.5391 9.16631 42.5391 11.4956H40.1665C40.1665 10.6803 39.2747 10.1313 38.3996 10.1313C37.3564 10.1313 36.6496 10.7302 36.6496 11.4956C36.6496 12.1777 37.3395 12.577 38.0799 12.7434L39.8804 13.1593C42.4213 13.7583 42.9766 15.239 42.9766 16.4369C42.9766 18.5499 40.7386 19.7977 38.2987 19.7977C36.0775 19.7977 33.8058 18.4833 33.7722 16.1707ZM44.0704 13.9413C44.0704 10.3975 46.9142 8.16805 50.2965 8.16805C53.6787 8.16805 56.5394 10.4141 56.5394 13.9413C56.5394 17.4851 53.6619 19.7977 50.2796 19.7977C46.9142 19.7977 44.0704 17.4851 44.0704 13.9413ZM54.0489 13.9413C54.0489 11.795 52.3157 10.3476 50.2965 10.3476C48.2604 10.3476 46.5608 11.7784 46.5608 13.9413C46.5608 16.1208 48.2604 17.5683 50.2965 17.5683C52.3157 17.5683 54.0489 16.1208 54.0489 13.9413ZM65.9458 8.58399L65.5082 10.8134C64.9529 10.5805 64.364 10.4474 63.7582 10.4308C61.6043 10.4308 60.5947 12.5437 60.5947 15.5718V19.5814H58.0706V8.41762H60.5947V10.9299C61.2005 8.96666 62.3952 8.18469 63.9265 8.18469C64.7174 8.16805 65.5756 8.35107 65.9458 8.58399ZM78.7849 8.40098V19.5648H76.2945V17.901C75.5036 19.1655 73.804 19.8143 72.2055 19.8143C68.9746 19.8143 66.3159 17.5184 66.3159 13.9912C66.3159 10.4308 68.9746 8.18469 72.1718 8.18469C73.8545 8.18469 75.5036 8.80028 76.2776 10.0647V8.40098H78.7849ZM76.2776 13.9413C76.2776 11.6952 74.3257 10.3808 72.4915 10.3808C70.4554 10.3808 68.8232 11.845 68.8232 13.9413C68.8232 16.021 70.4723 17.5683 72.4915 17.5683C74.494 17.5683 76.2776 16.204 76.2776 13.9413ZM88.5951 8.58399L88.1576 10.8134C87.6023 10.5805 87.0134 10.4474 86.4076 10.4308C84.2537 10.4308 83.2441 12.5437 83.2441 15.5718V19.5814H80.7369V8.41762H83.2609V10.9299C83.8667 8.96666 85.0614 8.18469 86.5927 8.18469C87.3668 8.16805 88.225 8.35107 88.5951 8.58399ZM100.913 14.9229H91.4558C91.7755 16.7364 93.2058 17.6182 95.1241 17.6182C96.4871 17.6182 97.7828 17.0691 98.4559 16.0376L100.441 16.9693C99.3982 18.8327 97.278 19.7977 95.0063 19.7977C91.5904 19.7977 88.898 17.4851 88.898 13.9413C88.898 10.3975 91.6409 8.16805 95.0063 8.16805C98.3717 8.16805 100.946 10.4141 100.946 13.9246C100.963 14.2408 100.929 14.5735 100.913 14.9229ZM98.4895 13.0429C98.2708 11.2959 96.891 10.3476 95.0736 10.3476C93.2563 10.3476 91.8764 11.2127 91.5231 13.0429H98.4895Z" fill="black"/>
</svg>
