<svg width="94" height="30" viewBox="0 0 94 30" fill="none" xmlns="http://www.w3.org/2000/svg">
<path fill-rule="evenodd" clip-rule="evenodd" d="M31.2767 16.2452V6.16138H32.2257C32.9988 6.16138 33.6255 6.79847 33.6255 7.58436V12.0679C35.1463 10.6887 36.4396 10.1366 38.1633 10.1012C41.4692 10.0324 44.3386 12.5284 44.6112 15.8785C44.9371 19.8808 42.0738 22.8934 38.3436 22.8934C34.2486 22.8934 31.2767 20.3121 31.2767 16.2452ZM33.5866 17.0369C33.8182 19.1203 35.7755 20.8413 37.8394 20.8746C40.5285 20.9163 42.3608 19.1349 42.3608 16.4994C42.3608 13.8638 40.5695 12.1242 37.9563 12.1242C35.1627 12.1179 33.2689 14.1805 33.5866 17.0369Z" fill="#3B3E4F"/>
<path fill-rule="evenodd" clip-rule="evenodd" d="M48.5284 10.3527V12.1486C50.0061 10.4819 50.8813 10.0339 52.6111 10.0339C53.1143 10.0345 53.6167 10.0756 54.1135 10.1569V12.5424C53.5833 12.3943 53.0359 12.32 52.4861 12.3215C51.2338 12.3215 50.1824 12.7382 49.4118 13.5258C48.7354 14.2154 48.5346 14.755 48.5346 15.8384V22.4804H46.0997V10.3527H48.5284Z" fill="#3B3E4F"/>
<path fill-rule="evenodd" clip-rule="evenodd" d="M54.6909 14.3633C54.816 13.182 55.0414 12.5424 55.5415 11.9278C56.5437 10.6777 58.3474 10.0339 60.9011 10.0339C62.9302 10.0339 64.4079 10.3548 65.4347 11.0423C66.2874 11.6069 66.6378 12.4445 66.6378 13.9195V19.3052C66.6378 20.4865 66.9391 20.9032 67.7651 20.8803C67.9496 20.8737 68.1337 20.857 68.3164 20.8303V22.4533C67.9058 22.5959 67.4733 22.6623 67.0396 22.6491C65.5126 22.6491 64.8117 22.1824 64.3362 20.8282C62.8338 22.2304 61.2803 22.82 59.0524 22.82C56.0723 22.82 54.2441 21.4428 54.2441 19.2031C54.2311 17.926 54.9702 16.7645 56.1215 16.253C57.0233 15.8592 57.5747 15.7363 60.153 15.4655C62.3563 15.2446 62.7334 15.1946 63.3585 14.9967C64.0349 14.7758 64.3362 14.4071 64.3362 13.7925C64.3362 12.4882 63.2602 11.8986 61.0056 11.8986C58.8741 11.8986 57.7755 12.3278 57.3349 13.4237C57.1166 13.9841 56.5853 14.3535 55.9924 14.3571L54.6909 14.3633ZM64.3239 16.4301C62.7791 16.8868 61.1929 17.1835 59.5894 17.3155C57.4107 17.5364 56.7343 17.9552 56.7343 19.0615C56.7343 20.2907 57.7366 20.9366 59.7144 20.9366C61.3418 20.9366 62.5695 20.5199 63.4467 19.7073C64.1476 19.0427 64.3239 18.576 64.3239 17.4155V16.4301Z" fill="#3B3E4F"/>
<path fill-rule="evenodd" clip-rule="evenodd" d="M74.1956 22.4786H73.5685C73.016 22.4822 72.5105 22.1629 72.269 21.6577L67.016 10.353H68.4753C69.3256 10.3461 70.0998 10.8503 70.449 11.6385L73.9538 19.7639L77.5754 11.6072C77.9297 10.8315 78.6974 10.3378 79.5388 10.3446H80.8649L75.4889 21.6702C75.2449 22.1685 74.7431 22.4821 74.1956 22.4786Z" fill="#3B3E4F"/>
<path fill-rule="evenodd" clip-rule="evenodd" d="M82.5116 17.118C82.7616 19.4557 84.5611 20.9057 87.244 20.9057C88.7668 20.9057 89.9084 20.4453 90.6155 19.5265C91.028 18.9996 91.6543 18.6928 92.3167 18.6931H93.7288C92.4991 21.4474 90.2979 22.8017 87.0165 22.8017C82.9174 22.8017 80.1546 20.2682 80.1546 16.4805C80.1546 12.6928 82.985 10.0364 87.0677 10.0364C90.0212 10.0364 92.3966 11.3886 93.3538 13.6533C93.7801 14.695 93.9543 15.62 93.9543 17.1201L82.5116 17.118ZM91.4764 15.2429C90.925 13.1033 89.2977 11.8969 87.0432 11.8969C84.7886 11.8969 83.1613 13.1033 82.5854 15.2429H91.4764Z" fill="#3B3E4F"/>
<path fill-rule="evenodd" clip-rule="evenodd" d="M23.7421 7.36851L24.4174 5.6798C24.4174 5.6798 23.5579 4.74163 22.5143 3.67837C21.4707 2.61512 19.2607 3.24056 19.2607 3.24056L16.7437 0.331299H12.3237H7.90362L5.38665 3.24056C5.38665 3.24056 3.17664 2.61512 2.13302 3.67837C1.0894 4.74163 0.229945 5.6798 0.229945 5.6798L0.905228 7.36851L0.0457764 9.87029C0.0457764 9.87029 2.57349 19.6244 2.86969 20.8156C3.45289 23.161 3.85192 24.0679 5.50943 25.2563C7.16695 26.4446 10.175 28.5086 10.6661 28.8213C11.1573 29.134 11.7712 29.6667 12.3237 29.6667C12.8762 29.6667 13.4901 29.134 13.9812 28.8213C14.4723 28.5086 17.4804 26.4446 19.1379 25.2563C20.7954 24.0679 21.1944 23.161 21.7776 20.8156C22.0738 19.6244 24.6015 9.87029 24.6015 9.87029L23.7421 7.36851Z" fill="url(#paint0_linear_304_158)"/>
<path fill-rule="evenodd" clip-rule="evenodd" d="M12.3196 18.5876C12.4879 18.5876 13.566 18.9753 14.4312 19.4314C15.2963 19.8876 15.9233 20.2101 16.1237 20.3379C16.3241 20.4657 16.2019 20.7067 16.0193 20.8382C15.8368 20.9696 13.3836 22.905 13.1455 23.1189C12.9074 23.3329 12.5575 23.6862 12.3196 23.6862C12.0818 23.6862 11.7318 23.3329 11.4938 23.1189C11.2556 22.905 8.80252 20.9696 8.61995 20.8382C8.43738 20.7067 8.31521 20.4657 8.51559 20.3379C8.71602 20.2101 9.34299 19.8876 10.2082 19.4314C11.0732 18.9753 12.1514 18.5876 12.3196 18.5876ZM12.3328 4.80298C12.4154 4.80531 12.8809 4.82836 13.5474 5.05471C14.2841 5.30489 15.0822 5.61761 15.4505 5.61761C15.8189 5.61761 18.5507 5.08598 18.5507 5.08598C18.5507 5.08598 21.7881 9.0732 21.7881 9.92537C21.7881 10.7775 21.3809 11.0025 20.9714 11.4455C20.5619 11.8885 18.7736 13.8232 18.5439 14.0716C18.3143 14.3201 17.8362 14.6968 18.1174 15.3749C18.3986 16.0529 18.8135 16.9157 18.3522 17.7909C17.8907 18.666 17.1004 19.2501 16.5939 19.1535C16.0874 19.0569 14.898 18.4236 14.4606 18.1343C14.0232 17.8451 12.6369 16.6802 12.6369 16.2346C12.6369 15.7889 14.0699 14.9887 14.3346 14.8069C14.5995 14.6252 15.807 13.9215 15.8317 13.6453C15.8564 13.369 15.847 13.288 15.4907 12.6055C15.1343 11.923 14.4925 11.0122 14.5994 10.4062C14.7062 9.80028 15.7412 9.48518 16.4798 9.20098C17.2183 8.91684 18.6404 8.38014 18.818 8.29671C18.9958 8.21321 18.9498 8.13372 18.4116 8.08174C17.8736 8.02977 16.3464 7.82325 15.658 8.01876C14.9695 8.21427 13.7932 8.51174 13.698 8.66947C13.6027 8.82721 13.5187 8.83253 13.6165 9.37667C13.7143 9.9208 14.2181 12.5318 14.2669 12.9956C14.3159 13.4593 14.4115 13.7659 13.9207 13.8803C13.4298 13.9946 12.6036 14.1931 12.3197 14.1931C12.0357 14.1931 11.2094 13.9946 10.7186 13.8803C10.2278 13.7659 10.3234 13.4593 10.3723 12.9956C10.4213 12.5318 10.925 9.9208 11.0228 9.37667C11.1206 8.83253 11.0366 8.82721 10.9413 8.66947C10.8461 8.51174 9.66978 8.21427 8.9813 8.01876C8.29282 7.82325 6.76576 8.02977 6.22762 8.08174C5.68948 8.13372 5.64356 8.21321 5.82122 8.29671C5.99888 8.38014 7.42096 8.91684 8.15948 9.20098C8.89806 9.48518 9.93314 9.80028 10.04 10.4062C10.1468 11.0122 9.50495 11.923 9.14865 12.6055C8.79228 13.288 8.78283 13.369 8.80757 13.6453C8.83225 13.9215 10.0398 14.6252 10.3046 14.8069C10.5694 14.9887 12.0023 15.7889 12.0023 16.2346C12.0023 16.6802 10.6161 17.8451 10.1787 18.1343C9.7413 18.4236 8.55188 19.0569 8.04542 19.1535C7.53896 19.2501 6.74857 18.666 6.28716 17.7909C5.82582 16.9157 6.24069 16.0529 6.52186 15.3749C6.80308 14.6968 6.32504 14.3201 6.09532 14.0716C5.86572 13.8232 4.07733 11.8885 3.66786 11.4455C3.25839 11.0025 2.8512 10.7775 2.8512 9.92537C2.8512 9.0732 6.08863 5.08598 6.08863 5.08598C6.08863 5.08598 8.82046 5.61761 9.1888 5.61761C9.55713 5.61761 10.3552 5.30489 11.0919 5.05471C11.7584 4.82836 12.2239 4.80531 12.3065 4.80298H12.3328Z" fill="white"/>
<path d="M19.2616 3.24056L16.7447 0.331299H12.3246H7.90458L5.38761 3.24056C5.38761 3.24056 3.17759 2.61512 2.13397 3.67837C2.13397 3.67837 5.08066 3.40737 6.09359 5.08563C6.09359 5.08563 8.82542 5.61726 9.19375 5.61726C9.56209 5.61726 10.3602 5.30453 11.0968 5.05435C11.8335 4.80418 12.3246 4.80236 12.3246 4.80236C12.3246 4.80236 12.8157 4.80418 13.5524 5.05435C14.2891 5.30453 15.0871 5.61726 15.4555 5.61726C15.8238 5.61726 18.5556 5.08563 18.5556 5.08563C19.5686 3.40737 22.5153 3.67837 22.5153 3.67837C21.4716 2.61512 19.2616 3.24056 19.2616 3.24056Z" fill="url(#paint1_linear_304_158)"/>
<defs>
<linearGradient id="paint0_linear_304_158" x1="0.0457764" y1="15.206" x2="24.6015" y2="15.206" gradientUnits="userSpaceOnUse">
<stop stop-color="#FF5500"/>
<stop offset="0.409877" stop-color="#FF5500"/>
<stop offset="0.581981" stop-color="#FF2000"/>
<stop offset="1" stop-color="#FF2000"/>
</linearGradient>
<linearGradient id="paint1_linear_304_158" x1="2.57185" y1="3.01157" x2="22.5153" y2="3.01157" gradientUnits="userSpaceOnUse">
<stop stop-color="#FF452A"/>
<stop offset="1" stop-color="#FF2000"/>
</linearGradient>
</defs>
</svg>
