<svg width="108" height="30" viewBox="0 0 108 30" fill="none" xmlns="http://www.w3.org/2000/svg">
<path d="M0.680664 4.68913L13.5569 0.5V29.5C4.35947 25.633 0.680664 18.2219 0.680664 14.0337V4.68913Z" fill="#6C7689"/>
<path d="M26.4344 4.68913L13.5581 0.5V29.5C22.7556 25.633 26.4344 18.2219 26.4344 14.0337V4.68913Z" fill="url(#paint0_linear_6080_12719)"/>
<path d="M49.0464 7.34106H54.1532V10.2043C55.8264 7.63105 57.7518 7.34106 60.5704 7.34106V12.401H59.2868C55.9093 12.401 54.2923 13.9919 54.2923 17.1434V22.5219H49.0464V7.34106Z" fill="#6C7689"/>
<path d="M77.6095 22.5209H72.3645V21.0736C71.2191 22.404 69.6582 22.9822 67.7337 22.9822C64.079 22.9822 62.0127 20.8131 62.0127 16.8238V7.34009H67.2577V15.6398C67.2577 17.518 68.1785 18.6164 69.7402 18.6164C71.302 18.6164 72.3636 17.5457 72.3636 15.7255V7.34009H77.6086V22.5209H77.6095Z" fill="#6C7689"/>
<path d="M78.8916 17.8347H83.8041C84.0278 18.9331 84.7811 19.3953 86.5933 19.3953C88.073 19.3953 88.9377 19.0491 88.9377 18.4129C88.9377 17.9204 88.5187 17.6018 87.3207 17.3422L83.3584 16.4455C80.7074 15.8396 79.3676 14.3068 79.3676 11.8477C79.3676 8.60794 81.7387 6.9314 86.3428 6.9314C90.9469 6.9314 93.2066 8.56511 93.5988 12.0654H88.7166C88.6337 11.141 87.6835 10.5754 86.1217 10.5754C84.8666 10.5754 84.059 10.9795 84.059 11.5881C84.059 12.1082 84.5876 12.5124 85.6502 12.7748L89.8068 13.7875C92.5407 14.4513 93.8537 15.8405 93.8537 18.0953C93.8537 21.219 91.1465 23.0696 86.5451 23.0696C81.9437 23.0696 78.8996 21.0745 78.8996 17.8347H78.8943H78.8916Z" fill="#6C7689"/>
<path d="M107.82 12.0619V7.34009H94.873V12.0646H98.7364V22.5209H103.955V12.0619H107.82Z" fill="#6C7689"/>
<path d="M47.5859 12.0619V7.34009H34.6401V12.0646H38.5035V22.5209H43.7226V12.0619H47.5859Z" fill="#6C7689"/>
<defs>
<linearGradient id="paint0_linear_6080_12719" x1="23.0141" y1="-1.53077" x2="13.2702" y2="29.0985" gradientUnits="userSpaceOnUse">
<stop offset="0.16" stop-color="white"/>
<stop offset="0.42" stop-color="#B5BED0"/>
<stop offset="0.68" stop-color="#7D889D"/>
<stop offset="0.9" stop-color="#6C7689"/>
</linearGradient>
</defs>
</svg>
