<svg width="153" height="28" viewBox="0 0 153 28" fill="none" xmlns="http://www.w3.org/2000/svg">
<g clip-path="url(#clip0_6168_29302)">
<path d="M134.886 14.0661C134.097 13.5279 133.235 13.169 132.374 12.7025C131.836 12.4155 131.262 12.1284 130.795 11.7337C130.006 11.0878 130.149 9.79598 131.011 9.22184C132.195 8.43241 134.168 8.86301 134.384 10.4778C134.384 10.5136 134.419 10.5495 134.455 10.5495H136.25C136.285 10.5495 136.321 10.5136 136.321 10.4778C136.214 9.36538 135.783 8.4324 134.994 7.82238C134.24 7.24825 133.379 6.96118 132.446 6.96118C127.709 6.96118 127.279 11.9849 129.826 13.5637C130.113 13.7432 132.625 14.9991 133.522 15.5732C134.419 16.1115 134.671 17.1162 134.312 17.9056C133.953 18.6233 133.056 19.1257 132.159 19.0539C131.154 18.9822 130.401 18.4439 130.113 17.6186C130.078 17.475 130.042 17.188 130.042 17.0444C130.042 17.0086 130.006 16.9727 129.97 16.9727H128.032C127.996 16.9727 127.96 17.0086 127.96 17.0444C127.96 18.4439 128.319 19.2333 129.252 19.951C130.149 20.6328 131.118 20.9199 132.159 20.9199C134.814 20.9199 136.178 19.4128 136.465 17.8698C136.68 16.3627 136.25 14.9991 134.886 14.0661Z" fill="#677689"/>
<path d="M50.3094 7.24829H49.4481H48.5152C48.4793 7.24829 48.4434 7.28417 48.4434 7.28417L46.8286 12.559C46.7928 12.6308 46.721 12.6308 46.6851 12.559L45.0704 7.28417C45.0704 7.24829 45.0345 7.24829 44.9986 7.24829H44.0656H43.2044H42.0561C42.0203 7.24829 41.9844 7.28417 41.9844 7.32006V20.7764C41.9844 20.8123 42.0203 20.8481 42.0561 20.8481H43.9939C44.0297 20.8481 44.0656 20.8123 44.0656 20.7764V10.5496C44.0656 10.4778 44.1733 10.4419 44.2092 10.5137L45.8239 15.8244L45.9316 16.1833C45.9316 16.2192 45.9674 16.2192 46.0033 16.2192H47.5104C47.5463 16.2192 47.5822 16.1833 47.5822 16.1833L47.6899 15.8244L49.3046 10.5137C49.3405 10.4419 49.4481 10.4419 49.4481 10.5496V20.7764C49.4481 20.8123 49.484 20.8481 49.5199 20.8481H51.4576C51.4935 20.8481 51.5294 20.8123 51.5294 20.7764V7.32006C51.5294 7.28417 51.4935 7.24829 51.4576 7.24829H50.3094Z" fill="#677689"/>
<path d="M105.066 7.24829C105.03 7.24829 104.994 7.28417 104.994 7.28417L103.38 12.559C103.344 12.6308 103.272 12.6308 103.236 12.559L101.621 7.28417C101.621 7.24829 101.585 7.24829 101.55 7.24829H98.5713C98.5354 7.24829 98.4995 7.28417 98.4995 7.32006V20.7764C98.4995 20.8123 98.5354 20.8481 98.5713 20.8481H100.509C100.545 20.8481 100.581 20.8123 100.581 20.7764V10.5496C100.581 10.4778 100.688 10.4419 100.724 10.5137L102.339 15.8244L102.447 16.1833C102.447 16.2192 102.483 16.2192 102.518 16.2192H104.026C104.061 16.2192 104.097 16.1833 104.097 16.1833L104.205 15.8244L105.82 10.5137C105.856 10.4419 105.963 10.4419 105.963 10.5496V20.7764C105.963 20.8123 105.999 20.8481 106.035 20.8481H107.973C108.009 20.8481 108.045 20.8123 108.045 20.7764V7.32006C108.045 7.28417 108.009 7.24829 107.973 7.24829H105.066Z" fill="#677689"/>
<path d="M79.9472 7.24829H76.3229H74.3852H70.7251C70.6892 7.24829 70.6533 7.28417 70.6533 7.32006V9.00658C70.6533 9.04246 70.6892 9.07835 70.7251 9.07835H74.2776V20.7764C74.2776 20.8123 74.3134 20.8481 74.3493 20.8481H76.287C76.3229 20.8481 76.3588 20.8123 76.3588 20.7764V9.07835H79.9113C79.9472 9.07835 79.983 9.04246 79.983 9.00658V7.32006C80.0189 7.28417 79.983 7.24829 79.9472 7.24829Z" fill="#677689"/>
<path d="M91.431 20.8481H93.1892C93.2251 20.8481 93.261 20.8122 93.261 20.7405L89.6009 7.24829C89.6009 7.2124 89.565 7.2124 89.5291 7.2124H88.8473H87.6632H86.9814C86.9455 7.2124 86.9096 7.24829 86.9096 7.24829L83.2495 20.7405C83.2495 20.7764 83.2854 20.8481 83.3213 20.8481H85.0796C85.1155 20.8481 85.1513 20.8122 85.1513 20.8122L86.2278 16.8651C86.2278 16.8292 86.2637 16.8292 86.2996 16.8292H90.2109C90.2468 16.8292 90.2827 16.8651 90.2827 16.8651L91.3592 20.8122C91.3592 20.8122 91.3951 20.8481 91.431 20.8481ZM86.7661 14.8915L88.2014 9.6166C88.2373 9.54483 88.3091 9.54483 88.345 9.6166L89.7803 14.8915C89.7803 14.9274 89.7444 14.9991 89.7085 14.9991H86.8737C86.802 14.9991 86.7661 14.9274 86.7661 14.8915Z" fill="#677689"/>
<path d="M121.645 20.8481H123.404C123.439 20.8481 123.475 20.8122 123.475 20.7405L119.815 7.24829C119.815 7.2124 119.779 7.2124 119.743 7.2124H119.062H117.878H117.196C117.16 7.2124 117.124 7.24829 117.124 7.24829L113.464 20.7405C113.464 20.7764 113.5 20.8481 113.536 20.8481H115.294C115.33 20.8481 115.366 20.8122 115.366 20.8122L116.442 16.8651C116.442 16.8292 116.478 16.8292 116.514 16.8292H120.425C120.461 16.8292 120.497 16.8651 120.497 16.8651L121.574 20.8122C121.574 20.8122 121.609 20.8481 121.645 20.8481ZM116.98 14.8915L118.416 9.6166C118.452 9.54483 118.523 9.54483 118.559 9.6166L119.995 14.8915C119.995 14.9274 119.959 14.9991 119.923 14.9991H117.088C117.016 14.9991 116.98 14.9274 116.98 14.8915Z" fill="#677689"/>
<path d="M59.423 18.8387V14.6762C59.423 14.6403 59.4589 14.6044 59.4948 14.6044H64.6979C64.7338 14.6044 64.7697 14.5685 64.7697 14.5326V12.8461C64.7697 12.8102 64.7338 12.7743 64.6979 12.7743H59.4948C59.4589 12.7743 59.423 12.7385 59.423 12.7026V9.15011C59.423 9.11423 59.4589 9.07835 59.4948 9.07835H65.3797C65.4156 9.07835 65.4515 9.04246 65.4515 9.00658V7.32006C65.4515 7.28417 65.4156 7.24829 65.3797 7.24829H59.423H57.4136C57.3777 7.24829 57.3418 7.28417 57.3418 7.32006V9.07835V12.8102V14.6403V18.9463V20.7764C57.3418 20.8123 57.3777 20.8481 57.4136 20.8481H59.423H65.6309C65.6668 20.8481 65.7027 20.8123 65.7027 20.7764V19.0181C65.7027 18.9822 65.6668 18.9463 65.6309 18.9463H59.4589C59.4589 18.9104 59.423 18.8745 59.423 18.8387Z" fill="#677689"/>
<path d="M152.684 20.7046L145.937 13.7432C145.902 13.7073 145.902 13.6714 145.937 13.6355L152.002 7.32005C152.038 7.28417 152.002 7.2124 151.966 7.2124H149.49C149.454 7.2124 149.454 7.2124 149.454 7.24829L144.287 12.6308C144.251 12.6667 144.179 12.6308 144.179 12.5949V7.35593C144.179 7.32005 144.143 7.28417 144.107 7.28417H142.134C142.098 7.28417 142.062 7.32005 142.062 7.35593V20.8122C142.062 20.8481 142.098 20.884 142.134 20.884H144.071C144.107 20.884 144.143 20.8481 144.143 20.8122V14.8915C144.143 14.8197 144.215 14.7838 144.251 14.8556L150.064 20.884L150.1 20.9199H152.576C152.684 20.8481 152.719 20.7405 152.684 20.7046Z" fill="#677689"/>
<path d="M28.3196 0.351074L16.5498 9.10665L18.7387 3.93942L28.3196 0.351074Z" fill="#84909F" stroke="#84909F" stroke-width="0.358835" stroke-linecap="round" stroke-linejoin="round"/>
<path d="M1.12012 0.351074L12.8181 9.17842L10.7369 3.93942L1.12012 0.351074Z" fill="#84909F" stroke="#84909F" stroke-width="0.358835" stroke-linecap="round" stroke-linejoin="round"/>
<path d="M24.0855 20.6252L20.9277 25.4336L27.6738 27.2996L29.5757 20.7329L24.0855 20.6252Z" fill="#84909F" stroke="#84909F" stroke-width="0.358835" stroke-linecap="round" stroke-linejoin="round"/>
<path d="M-0.0991211 20.7329L1.80271 27.2996L8.51292 25.4336L5.39106 20.6252L-0.0991211 20.7329Z" fill="#84909F" stroke="#84909F" stroke-width="0.358835" stroke-linecap="round" stroke-linejoin="round"/>
<path d="M8.15256 12.5155L6.28662 15.3503L12.9251 15.6374L12.7098 8.46069L8.15256 12.5155Z" fill="#84909F" stroke="#84909F" stroke-width="0.358835" stroke-linecap="round" stroke-linejoin="round"/>
<path d="M21.3223 12.5155L16.6933 8.38892L16.5498 15.6374L23.1883 15.3503L21.3223 12.5155Z" fill="#84909F" stroke="#84909F" stroke-width="0.358835" stroke-linecap="round" stroke-linejoin="round"/>
<path d="M8.51221 25.4334L12.5312 23.4957L9.05046 20.7686L8.51221 25.4334Z" fill="#A4ACB7" stroke="#A4ACB7" stroke-width="0.358835" stroke-linecap="round" stroke-linejoin="round"/>
<path d="M16.9448 23.4957L20.9279 25.4334L20.3896 20.7686L16.9448 23.4957Z" fill="#84909F" stroke="#84909F" stroke-width="0.358835" stroke-linecap="round" stroke-linejoin="round"/>
<path d="M20.9279 25.4336L16.9448 23.4958L17.2678 26.0795L17.2319 27.1919L20.9279 25.4336Z" fill="#DFE2E7" stroke="#DFE2E7" stroke-width="0.358835" stroke-linecap="round" stroke-linejoin="round"/>
<path d="M8.51221 25.4336L12.2441 27.1919L12.2082 26.0795L12.5312 23.4958L8.51221 25.4336Z" fill="#DFE2E7" stroke="#DFE2E7" stroke-width="0.358835" stroke-linecap="round" stroke-linejoin="round"/>
<path d="M12.3157 19.0466L8.97852 18.0777L11.3109 17.0012L12.3157 19.0466Z" fill="#3D4651" stroke="#3D4651" stroke-width="0.358835" stroke-linecap="round" stroke-linejoin="round"/>
<path d="M17.1597 19.0466L18.1285 17.0012L20.4968 18.0777L17.1597 19.0466Z" fill="#3D4651" stroke="#3D4651" stroke-width="0.358835" stroke-linecap="round" stroke-linejoin="round"/>
<path d="M8.512 25.4336L9.08614 20.6252L5.39014 20.7329L8.512 25.4336Z" fill="#677689" stroke="#677689" stroke-width="0.358835" stroke-linecap="round" stroke-linejoin="round"/>
<path d="M20.3887 20.6252L20.9269 25.4336L24.0847 20.7329L20.3887 20.6252Z" fill="#677689" stroke="#677689" stroke-width="0.358835" stroke-linecap="round" stroke-linejoin="round"/>
<path d="M23.1883 15.3503L16.5498 15.6374L17.1598 19.0463L18.1287 17.001L20.497 18.0775L23.1883 15.3503Z" fill="#677689" stroke="#677689" stroke-width="0.358835" stroke-linecap="round" stroke-linejoin="round"/>
<path d="M8.97788 18.0775L11.3103 17.001L12.315 19.0463L12.9251 15.6374L6.28662 15.3503L8.97788 18.0775Z" fill="#677689" stroke="#677689" stroke-width="0.358835" stroke-linecap="round" stroke-linejoin="round"/>
<path d="M6.28662 15.3503L9.04965 20.7688L8.97788 18.0775L6.28662 15.3503Z" fill="#84909F" stroke="#84909F" stroke-width="0.358835" stroke-linecap="round" stroke-linejoin="round"/>
<path d="M20.4963 18.0775L20.3887 20.7688L23.1876 15.3503L20.4963 18.0775Z" fill="#84909F" stroke="#84909F" stroke-width="0.358835" stroke-linecap="round" stroke-linejoin="round"/>
<path d="M12.9255 15.637L12.3154 19.0459L13.069 23.1007L13.2484 17.7541L12.9255 15.637Z" fill="#84909F" stroke="#84909F" stroke-width="0.358835" stroke-linecap="round" stroke-linejoin="round"/>
<path d="M16.55 15.637L16.2271 17.7541L16.3706 23.1007L17.16 19.0459L16.55 15.637Z" fill="#84909F" stroke="#84909F" stroke-width="0.358835" stroke-linecap="round" stroke-linejoin="round"/>
<path d="M17.1605 19.0462L16.3711 23.1011L16.9452 23.4958L20.39 20.7687L20.4977 18.0774L17.1605 19.0462Z" fill="#C3C9D0" stroke="#C3C9D0" stroke-width="0.358835" stroke-linecap="round" stroke-linejoin="round"/>
<path d="M8.97852 18.0774L9.05028 20.7687L12.531 23.4958L13.0692 23.1011L12.3157 19.0462L8.97852 18.0774Z" fill="#C3C9D0" stroke="#C3C9D0" stroke-width="0.358835" stroke-linecap="round" stroke-linejoin="round"/>
<path d="M17.2319 27.1921L17.2678 26.0797L16.9448 25.8286H12.4953L12.2082 26.0797L12.2441 27.1921L8.51221 25.4338L9.80401 26.5103L12.4594 28.3404H16.9807L19.6361 26.5103L20.9279 25.4338L17.2319 27.1921Z" fill="#C3C9D0" stroke="#C3C9D0" stroke-width="0.358835" stroke-linecap="round" stroke-linejoin="round"/>
<path d="M16.9451 23.4958L16.371 23.1011H13.0697L12.5314 23.4958L12.2085 26.0794L12.4956 25.8282H16.9451L17.2681 26.0794L16.9451 23.4958Z" fill="#3D4651" stroke="#3D4651" stroke-width="0.358835" stroke-linecap="round" stroke-linejoin="round"/>
<path d="M28.8223 9.68078L29.827 4.83651L28.3199 0.351074L16.9448 8.81958L21.3226 12.5156L27.4946 14.3098L28.8581 12.7309L28.284 12.3003L29.217 11.4391L28.4993 10.8649L29.4323 10.1473L28.8223 9.68078Z" fill="#677689" stroke="#677689" stroke-width="0.358835" stroke-linecap="round" stroke-linejoin="round"/>
<path d="M-0.350586 4.83651L0.65415 9.68078L0.00824904 10.1473L0.941219 10.8649L0.223549 11.4391L1.1924 12.3003L0.582384 12.7309L1.94596 14.3098L8.1538 12.5156L12.5316 8.81958L1.12064 0.351074L-0.350586 4.83651Z" fill="#677689" stroke="#677689" stroke-width="0.358835" stroke-linecap="round" stroke-linejoin="round"/>
<path d="M27.4936 14.3096L21.3216 12.5154L23.1876 15.3502L20.3887 20.7686L24.0847 20.7327H29.5748L27.4936 14.3096Z" fill="#C3C9D0" stroke="#C3C9D0" stroke-width="0.358835" stroke-linecap="round" stroke-linejoin="round"/>
<path d="M8.15408 12.5154L1.94624 14.3096L-0.0991211 20.7327H5.39106L9.05117 20.7686L6.28814 15.3502L8.15408 12.5154Z" fill="#C3C9D0" stroke="#C3C9D0" stroke-width="0.358835" stroke-linecap="round" stroke-linejoin="round"/>
<path d="M16.5495 15.6372L16.9442 8.81937L18.7383 3.93921H10.7363L12.5305 8.81937L12.9252 15.6372L13.0688 17.7902V23.101H16.37V17.7902L16.5495 15.6372Z" fill="#C3C9D0" stroke="#C3C9D0" stroke-width="0.358835" stroke-linecap="round" stroke-linejoin="round"/>
</g>
<defs>
<clipPath id="clip0_6168_29302">
<rect width="152.698" height="27.9891" fill="white"/>
</clipPath>
</defs>
</svg>
