<svg width="32" height="32" viewBox="0 0 32 32" fill="none" xmlns="http://www.w3.org/2000/svg">
<path d="M24.668 1.33337H22.668C22.5346 1.33333 22.4044 1.37326 22.294 1.44801C22.1836 1.52276 22.0981 1.62889 22.0486 1.75271L20.8833 4.66671H19.3546L18.648 1.83804C18.6119 1.69388 18.5286 1.56591 18.4114 1.47448C18.2943 1.38304 18.1499 1.33338 18.0013 1.33337H14.0013C13.8527 1.33338 13.7083 1.38304 13.5912 1.47448C13.474 1.56591 13.3907 1.69388 13.3546 1.83804L12.648 4.66671H11.1193L9.95397 1.75271C9.9045 1.62889 9.81905 1.52276 9.70865 1.44801C9.59824 1.37326 9.46796 1.33333 9.33464 1.33337H7.33464C7.15782 1.33337 6.98826 1.40361 6.86323 1.52864C6.73821 1.65366 6.66797 1.82323 6.66797 2.00004V7.33337C6.66792 7.42475 6.68665 7.51516 6.723 7.599C6.75936 7.68283 6.81256 7.7583 6.8793 7.82071L11.352 12H20.6506L25.1233 7.82271C25.1903 7.76007 25.2436 7.68428 25.28 7.60008C25.3164 7.51588 25.335 7.42509 25.3346 7.33337V2.00004C25.3346 1.82323 25.2644 1.65366 25.1394 1.52864C25.0143 1.40361 24.8448 1.33337 24.668 1.33337Z" fill="#21BF73"/>
<path d="M11.3338 12L7.48047 24.6667H24.5205L20.6671 12H11.3338Z" fill="#165034"/>
<path d="M28.0016 31.3334H4.00163C3.82482 31.3334 3.65525 31.2632 3.53022 31.1382C3.4052 31.0131 3.33496 30.8436 3.33496 30.6667V26.6667C3.33496 26.1363 3.54567 25.6276 3.92075 25.2525C4.29582 24.8775 4.80453 24.6667 5.33496 24.6667H26.6683C27.1987 24.6667 27.7074 24.8775 28.0825 25.2525C28.4576 25.6276 28.6683 26.1363 28.6683 26.6667V30.6667C28.6683 30.8436 28.5981 31.0131 28.473 31.1382C28.348 31.2632 28.1784 31.3334 28.0016 31.3334Z" fill="#165034"/>
<path d="M5.33496 24.6667H26.6683C27.1987 24.6667 27.7074 24.8775 28.0825 25.2525C28.4576 25.6276 28.6683 26.1363 28.6683 26.6667V27.3334H3.33496V26.6667C3.33496 26.1363 3.54567 25.6276 3.92075 25.2525C4.29582 24.8775 4.80453 24.6667 5.33496 24.6667Z" fill="#21BF73"/>
</svg>
