<svg width="129" height="30" viewBox="0 0 129 30" fill="none" xmlns="http://www.w3.org/2000/svg">
<g clip-path="url(#clip0_2008_77700)">
<mask id="mask0_2008_77700" style="mask-type:luminance" maskUnits="userSpaceOnUse" x="0" y="3" width="129" height="23">
<path d="M128.318 3.87817H0.25V25.6771H128.318V3.87817Z" fill="white"/>
</mask>
<g mask="url(#mask0_2008_77700)">
<path d="M47.0956 10.6311C49.3799 10.6311 51.2453 12.4952 51.2453 14.7778C51.2453 17.0604 49.3799 18.9246 47.0956 18.9246C44.8115 18.9246 42.946 17.0604 42.946 14.7778C42.946 12.4952 44.7924 10.6311 47.0956 10.6311ZM47.0956 8.63379C43.7074 8.63379 40.9473 11.3919 40.9473 14.7778C40.9473 18.1637 43.7074 20.9218 47.0956 20.9218C50.4839 20.9218 53.244 18.1637 53.244 14.7778C53.244 11.3729 50.4839 8.63379 47.0956 8.63379Z" fill="#677689"/>
<path d="M106.656 10.6311C108.94 10.6311 110.806 12.4952 110.806 14.7778C110.806 17.0604 108.94 18.9246 106.656 18.9246C104.372 18.9246 102.506 17.0604 102.506 14.7778C102.506 12.4952 104.372 10.6311 106.656 10.6311ZM106.656 8.63379C103.268 8.63379 100.508 11.3919 100.508 14.7778C100.508 18.1637 103.268 20.9218 106.656 20.9218C110.044 20.9218 112.804 18.1637 112.804 14.7778C112.804 11.3729 110.063 8.63379 106.656 8.63379Z" fill="#677689"/>
<path d="M97.3862 16.2044C96.7967 17.8023 95.2736 18.9246 93.4842 18.9246C91.1999 18.9246 89.3346 17.0604 89.3346 14.7778C89.3346 12.4952 91.1999 10.6311 93.4842 10.6311C95.2736 10.6311 96.7967 11.7724 97.3862 13.3512H99.4617C98.8331 10.6501 96.3971 8.63379 93.4842 8.63379C90.096 8.63379 87.3359 11.3919 87.3359 14.7778C87.3359 18.1637 90.096 20.9218 93.4842 20.9218C96.3971 20.9218 98.8331 18.9055 99.4617 16.2044H97.3862Z" fill="#677689"/>
<path d="M80.1404 10.821C82.3674 10.821 84.1758 12.6851 84.0996 14.9297C84.0235 17.0791 82.1961 18.734 80.0452 18.734H77.8561V10.821H80.1404ZM80.1404 8.82373H75.8574V20.7314H80.1404C83.4334 20.7314 86.0984 18.0683 86.0984 14.7775C86.0984 11.4868 83.4334 8.82373 80.1404 8.82373Z" fill="#677689"/>
<path d="M116.269 8.84277H114.27V20.7123H116.269V8.84277Z" fill="#677689"/>
<path d="M30.2872 20.7695L32.5524 12.0386L34.8175 20.7695H37.5586L40.6613 8.78589H38.6056L36.1881 18.0876L33.7706 8.78589H31.3341L28.9167 18.0876L26.4992 8.78589H24.4434L27.5461 20.7695H30.2872Z" fill="#677689"/>
<path d="M120.266 12.2667L126.319 20.7123H126.548H128.318V8.84276H126.319V17.2884L120.266 8.82373H120.113L120.094 8.84276H118.268V20.7123H120.266V12.2667Z" fill="#677689"/>
<path d="M68.0534 8.84277H66.0547V20.7123H74.3921V18.715H68.0534V8.84277Z" fill="#677689"/>
<path d="M62.2103 15.8237C63.4286 15.2151 64.2661 13.9786 64.2661 12.533C64.2661 10.4977 62.61 8.86182 60.5923 8.86182H56.8234H54.7676V16.2232V20.7314H56.8234V16.2042H57.9655C60.402 16.2803 62.3436 18.2586 62.3436 20.7123H64.3993C64.4184 18.7721 63.5618 17.0221 62.2103 15.8237ZM56.8234 14.1498V10.8971H60.5923C61.487 10.8971 62.2103 11.62 62.2103 12.514C62.2103 13.408 61.487 14.1498 60.5923 14.1498H56.8234Z" fill="#677689"/>
<path d="M21.1887 10.5358C20.6367 9.2423 19.8562 8.08197 18.8474 7.07382C17.8384 6.06567 16.6964 5.28578 15.402 4.73415C14.0505 4.1635 12.6229 3.87817 11.1572 3.87817C9.67239 3.87817 8.24476 4.1635 6.91231 4.73415C5.61791 5.28578 4.45677 6.06567 3.44791 7.07382C2.43904 8.08197 1.6586 9.2423 1.10658 10.5358C0.535527 11.8673 0.25 13.2939 0.25 14.7776C0.25 16.2423 0.535527 17.6689 1.10658 19.0195C1.6586 20.3129 2.43904 21.4732 3.44791 22.4814C4.45677 23.4896 5.61791 24.2695 6.91231 24.802C8.2638 25.3727 9.69146 25.6581 11.1572 25.6581C12.6229 25.6581 14.0505 25.3727 15.402 24.802C16.6964 24.2504 17.8575 23.4706 18.8663 22.4624C19.8753 21.4543 20.6557 20.2939 21.2077 19.0004C21.7788 17.6499 22.0642 16.2233 22.0642 14.7586C22.0642 13.2939 21.7597 11.8673 21.1887 10.5358ZM7.54047 13.7504C7.97827 12.0005 9.5772 10.726 11.4617 10.726H19.0377C19.5326 11.6581 19.8372 12.6852 19.9514 13.7504H7.54047ZM19.9514 15.8048C19.8372 16.87 19.5136 17.8972 19.0377 18.8292H11.4617C9.5772 18.8292 7.99731 17.5358 7.54047 15.8048H19.9514ZM4.89458 8.51948C6.56967 6.84557 8.79678 5.93252 11.1572 5.93252C13.5175 5.93252 15.7447 6.84557 17.4197 8.51948C17.4768 8.57654 17.5149 8.61458 17.5719 8.67165H11.4617C9.82471 8.67165 8.30187 9.29937 7.14072 10.4597C6.22704 11.3727 5.63695 12.514 5.44659 13.7504H2.3629C2.59133 11.7722 3.46694 9.94611 4.89458 8.51948ZM11.1572 23.6227C8.79678 23.6227 6.56967 22.7097 4.89458 21.0358C3.46694 19.6092 2.59133 17.7641 2.3629 15.8048H5.44659C5.65598 17.0412 6.24608 18.1825 7.14072 19.0955C8.30187 20.2559 9.82471 20.8836 11.4617 20.8836H17.5719C17.5149 20.9406 17.4768 20.9787 17.4197 21.0358C15.7447 22.7097 13.5175 23.6227 11.1572 23.6227Z" fill="#677689"/>
</g>
</g>
<defs>
<clipPath id="clip0_2008_77700">
<rect width="128.124" height="22.2438" fill="white" transform="translate(0.25 3.87817)"/>
</clipPath>
</defs>
</svg>
