<svg width="1050" height="187" viewBox="0 0 1050 187" fill="none" xmlns="http://www.w3.org/2000/svg">
<path d="M678.795 104.803H764.831V78.5024H678.795V65.0019H766.198V38.5677H644.061V146.638H767.198V119.604H678.795V104.803Z" fill="#FF0D75"/>
<path d="M376.851 78.2023L358.684 77.9356C336.65 77.5023 333.716 73.2688 333.716 68.6353C333.716 64.0018 335.616 59.335 361.75 59.335H364.084C392.418 59.335 394.585 68.202 395.318 72.2688H430.453V70.802C430.453 54.5348 418.852 36.6676 367.717 36.6676H357.717C308.449 36.6676 298.848 53.5348 298.848 69.6687V70.9354C298.848 87.8026 311.215 101.47 351.583 102.603L370.184 103.036C395.152 103.77 398.518 107.703 398.518 113.937C398.518 120.17 395.185 125.404 366.851 125.404H364.817C336.916 125.404 333.15 114.803 332.716 108.27H297.415V110.003C297.415 124.237 304.082 148.638 360.75 148.638H370.751C425.086 148.638 434.086 130.337 434.086 112.503V110.437C434.086 88.836 417.419 78.9356 376.851 78.2023Z" fill="#FF0D75"/>
<path d="M873.635 38.5673H829.767L812.5 72.7017L775.165 146.671H809.566L819.3 126.903H884.802L894.802 146.671H931.437L891.902 72.7017L873.635 38.5673ZM831.367 102.469L846.101 72.7017L851.401 61.9347L856.968 72.7017L872.302 102.469H831.367Z" fill="#FF0D75"/>
<path d="M912.27 38.5673V72.7017H962.204V146.637H999.372V72.7017H1049.27V38.5673H912.27Z" fill="#FF0D75"/>
<path d="M618.328 38.5677L584.66 38.6344L602.161 72.7022L580.793 118.004L537.592 38.5677L502.891 38.6344L521.991 75.7023L502.091 118.004L458.656 38.5677H423.988L480.19 146.605H522.291L539.925 110.203L558.859 146.605H600.994L636.762 72.7022L618.328 38.5677Z" fill="#FF0D75"/>
<path fill-rule="evenodd" clip-rule="evenodd" d="M53.9659 0L0.382812 57.4959L68.573 182.585L70.8013 186.673H110.329L164.453 128.597L96.2628 3.50799L94.3505 0H53.9659ZM41.1535 62.6415L92.527 156.882L123.682 123.451L72.3088 29.2112L41.1535 62.6415Z" fill="#FF0D75"/>
<path fill-rule="evenodd" clip-rule="evenodd" d="M88.917 58.5214L143.456 0H182.326L184.797 4.53344L252.987 129.622L199.819 186.673H158.777L157.107 183.61L88.917 58.5214ZM129.688 63.667L181.061 157.907L212.216 124.477L160.843 30.2367L129.688 63.667Z" fill="#FF0D75"/>
</svg>
